<?xml version="1.0" standalone="no"?>
<!DOCTYPE svg PUBLIC "-//W3C//DTD SVG 20010904//EN"
 "http://www.w3.org/TR/2001/REC-SVG-20010904/DTD/svg10.dtd">
<svg version="1.0" xmlns="http://www.w3.org/2000/svg"
 width="2000.000000pt" height="2000.000000pt" viewBox="0 0 2000.000000 2000.000000"
 preserveAspectRatio="xMidYMid meet">
<metadata>
Created by potrace 1.11, written by Peter Selinger 2001-2013
</metadata>
<g transform="translate(0.000000,2000.000000) scale(0.100000,-0.100000)"
fill="#000000" stroke="none">
<path d="M3920 19873 c-16 -157 -16 -651 -1 -823 43 -476 128 -942 262 -1422
l41 -146 -43 -114 c-23 -62 -45 -116 -49 -120 -7 -10 -132 343 -200 568 -164
541 -282 1084 -345 1594 -8 63 -15 134 -15 158 0 76 -18 44 -26 -45 -16 -197
7 -538 56 -828 46 -270 189 -840 264 -1053 15 -41 13 -72 -5 -72 -5 0 -9 4 -9
8 0 16 -238 369 -335 497 -54 72 -145 186 -203 255 -114 135 -532 560 -552
560 -6 0 38 -53 98 -117 247 -266 440 -511 640 -815 l70 -106 -34 -119 c-18
-65 -34 -127 -34 -138 0 -16 -10 -10 -50 30 l-50 50 15 95 c9 52 18 103 21
113 3 9 1 17 -4 17 -5 0 -20 -37 -32 -82 -45 -167 -58 -139 -36 74 9 84 19
163 22 176 4 12 2 22 -4 22 -10 0 -28 -72 -58 -226 l-16 -89 -51 47 -50 47 17
83 c9 46 19 94 23 107 4 17 3 22 -5 17 -7 -4 -23 -46 -38 -93 l-26 -86 -30 31
c-30 29 -31 32 -21 81 12 60 0 68 -19 12 l-13 -39 -37 32 -37 32 14 70 c18 82
17 74 5 74 -5 0 -14 -19 -20 -42 -6 -24 -13 -51 -16 -61 -8 -27 -184 126 -185
162 -1 17 -3 20 -6 9 -2 -10 -6 -18 -9 -18 -2 0 -61 46 -131 103 -192 155
-334 260 -341 252 -8 -8 5 -19 189 -171 74 -61 165 -140 202 -175 l69 -64 -16
-76 c-85 -412 -85 -958 1 -1419 l6 -34 -36 34 -36 35 -13 135 c-26 279 -15
1007 18 1248 7 47 -10 59 -19 15 -3 -16 -15 -72 -27 -127 -34 -159 -49 -290
-56 -481 -4 -99 -9 -182 -12 -185 -16 -16 21 640 49 868 14 119 -1 123 -27 7
-106 -463 -116 -870 -30 -1283 l22 -110 -47 40 c-52 44 -49 35 -75 226 -14
105 -14 130 -2 175 18 70 20 1014 2 970 -20 -49 -44 -214 -52 -353 l-7 -135
-6 105 c-4 58 -7 206 -8 330 -1 139 -5 220 -10 215 -22 -22 -44 -292 -44 -545
l-1 -255 -12 130 c-7 72 -19 182 -28 245 -9 63 -16 139 -16 169 0 43 -3 52
-12 43 -19 -19 -22 -176 -9 -450 16 -333 34 -452 107 -712 l7 -25 -25 26 c-19
20 -29 49 -41 115 -24 129 -44 294 -62 499 -9 99 -22 258 -31 353 -8 95 -16
226 -17 292 -2 112 -8 144 -21 103 -14 -47 -28 -304 -23 -438 4 -113 3 -130
-3 -70 -14 132 -33 544 -27 581 6 37 -10 48 -18 12 -16 -75 -28 -248 -28 -413
l0 -190 -27 235 c-47 411 -54 460 -64 460 -13 0 0 -503 19 -700 25 -266 68
-481 123 -628 19 -49 19 -51 2 -42 -37 20 -98 228 -126 427 -9 65 -27 161 -40
213 -39 158 -65 329 -65 439 0 118 -14 124 -31 15 -15 -95 -4 -317 22 -429 11
-49 27 -134 36 -188 19 -125 55 -249 99 -345 19 -41 35 -77 35 -79 0 -2 -15 8
-34 22 -19 14 -42 45 -51 67 -28 71 -73 266 -110 478 -48 278 -122 588 -146
615 -13 13 -12 0 17 -216 62 -473 106 -664 197 -844 22 -44 25 -56 12 -45 -22
17 -166 312 -221 450 -47 120 -88 259 -111 377 -10 51 -21 93 -25 93 -14 0 -9
-164 7 -256 30 -174 100 -345 214 -520 l59 -92 -62 43 c-61 43 -61 44 -108
162 -26 65 -59 161 -73 213 -15 52 -42 140 -60 195 -38 114 -90 293 -100 345
-16 80 -26 63 -21 -35 7 -132 28 -237 83 -414 50 -161 90 -257 148 -346 32
-51 34 -57 14 -43 -53 34 -146 230 -205 430 -32 107 -92 358 -109 452 -11 66
-20 29 -17 -77 7 -271 76 -510 196 -683 25 -35 43 -64 40 -64 -38 0 -98 99
-179 299 -24 59 -63 151 -88 206 -25 55 -57 136 -72 180 -16 44 -32 84 -37 90
-23 26 11 -183 46 -280 13 -37 22 -64 20 -62 -2 2 -41 75 -85 163 -91 178
-105 198 -94 139 29 -164 136 -398 257 -562 21 -29 38 -55 38 -58 0 -20 -36
29 -151 204 -70 108 -148 222 -171 254 -45 62 -140 157 -156 157 -6 0 14 -36
43 -79 29 -44 75 -119 101 -168 52 -97 108 -174 189 -261 l53 -57 -172 86
c-163 81 -392 179 -419 179 -6 0 35 -21 93 -45 116 -50 412 -196 407 -202 -2
-1 -37 4 -78 11 -96 19 -563 33 -573 18 -8 -13 -1 -15 139 -44 96 -19 142 -22
350 -23 l240 -1 80 -47 c44 -26 77 -47 73 -47 -4 0 -132 16 -285 36 -153 19
-314 39 -358 44 -105 13 -366 12 -385 0 -8 -5 -10 -10 -5 -10 30 0 270 -35
429 -61 155 -26 216 -32 421 -36 l240 -5 50 -33 c28 -17 79 -51 114 -73 36
-23 62 -42 58 -42 -4 0 -53 13 -110 30 -363 105 -836 141 -993 75 -33 -14 -44
-37 -24 -50 6 -4 9 -1 8 6 -6 27 68 33 245 21 95 -7 201 -17 237 -22 36 -5
162 -21 280 -35 308 -37 398 -54 445 -81 22 -13 34 -24 26 -24 -15 0 -114 14
-461 66 -330 49 -525 49 -745 -2 -90 -21 -110 -38 -35 -31 143 15 277 18 405
8 124 -10 353 -37 380 -45 6 -1 -71 -4 -170 -5 -99 -1 -229 -8 -290 -16 -146
-19 -419 -77 -403 -85 7 -4 74 -1 148 6 74 7 286 17 470 23 184 6 355 13 380
15 25 3 124 7 220 9 96 3 150 3 120 1 -30 -2 -129 -8 -220 -14 -91 -6 -201
-15 -245 -20 -44 -5 -147 -17 -228 -25 -172 -18 -348 -52 -497 -96 -101 -30
-161 -59 -95 -46 86 17 412 58 570 72 99 8 221 22 270 30 50 8 101 14 115 14
44 -1 -186 -37 -344 -53 -187 -19 -296 -38 -447 -76 -196 -50 -228 -71 -68
-46 107 17 459 52 594 60 l90 5 -70 -10 c-38 -5 -140 -18 -225 -30 -160 -21
-530 -86 -539 -94 -11 -12 14 -12 174 1 602 47 710 60 1332 170 l93 16 28 -24
c32 -25 83 -67 121 -96 24 -19 23 -19 -160 -25 -191 -7 -359 -24 -564 -57 -66
-10 -176 -26 -245 -35 -269 -36 -730 -135 -730 -157 0 -5 8 -7 18 -4 36 11
403 57 887 111 22 3 -18 -8 -90 -24 -283 -62 -642 -178 -653 -210 -3 -10 0
-11 14 -3 36 19 547 133 586 131 7 0 -34 -15 -92 -33 -101 -31 -299 -107 -330
-126 -21 -13 -5 -24 17 -12 39 21 387 102 568 132 105 17 228 37 275 45 134
23 412 62 563 80 l139 16 36 -33 37 -33 -225 -1 c-230 -1 -364 -14 -577 -55
-182 -35 -774 -215 -878 -266 -64 -32 -175 -111 -175 -124 0 -6 12 -2 28 9 35
25 125 70 176 89 23 8 174 48 336 89 162 42 318 82 345 90 71 21 265 64 284
63 9 0 -38 -15 -104 -34 -66 -18 -247 -74 -402 -124 -155 -50 -295 -92 -312
-93 -17 -1 -31 -6 -31 -10 0 -30 276 26 705 143 276 74 499 119 768 154 l118
15 55 -47 c29 -27 54 -51 54 -55 0 -3 -75 -7 -167 -7 -245 -2 -480 -31 -713
-87 -102 -25 -403 -124 -783 -258 -104 -36 -201 -66 -218 -66 -16 0 -29 -4
-29 -10 0 -33 278 34 788 190 363 112 691 178 1031 210 l115 11 34 -34 34 -34
-239 -6 c-373 -10 -550 -36 -796 -117 -210 -70 -531 -229 -579 -288 -15 -18
-16 -18 84 30 155 76 387 160 596 217 188 52 527 104 887 137 65 6 72 4 93
-18 l22 -25 -112 -12 c-162 -17 -386 -56 -593 -103 -237 -53 -485 -144 -890
-328 -82 -38 -168 -76 -190 -85 -22 -10 -35 -19 -30 -21 12 -5 153 42 600 201
279 99 562 186 600 184 6 0 -30 -15 -80 -33 -49 -18 -247 -103 -440 -189 -300
-133 -591 -257 -659 -281 -10 -3 -16 -9 -13 -12 15 -15 491 143 695 230 46 20
87 36 90 36 4 0 -58 -33 -138 -73 -134 -67 -221 -117 -358 -205 -30 -18 -52
-35 -50 -38 2 -2 89 36 194 85 359 168 546 237 1184 436 l295 93 62 -62 c33
-33 60 -62 59 -63 -1 -1 -42 -7 -91 -13 -148 -17 -332 -50 -460 -80 -144 -34
-488 -143 -663 -210 -221 -84 -560 -235 -550 -246 3 -3 97 27 209 66 192 66
679 224 959 310 130 40 331 92 507 131 99 21 104 22 123 4 23 -21 19 -31 -17
-40 -16 -3 -84 -27 -153 -51 -84 -31 -172 -54 -270 -70 -347 -60 -764 -183
-1115 -329 -187 -79 -390 -174 -383 -180 3 -3 49 11 104 31 303 111 1117 364
1130 351 2 -1 -67 -29 -154 -61 -342 -127 -655 -285 -800 -403 -51 -42 -50
-54 2 -19 95 64 437 214 731 321 88 32 268 104 400 160 223 95 249 104 370
124 72 11 158 24 191 27 l61 7 17 -33 c9 -18 15 -34 14 -36 -2 -1 -97 -30
-212 -64 -115 -34 -280 -86 -365 -117 -226 -79 -252 -87 -401 -129 -159 -44
-325 -106 -465 -173 -120 -57 -249 -131 -241 -138 2 -3 33 8 68 25 76 36 255
102 398 148 123 40 420 117 426 111 2 -2 -53 -19 -123 -37 -312 -79 -596 -182
-817 -294 -131 -67 -172 -106 -53 -51 146 68 509 182 835 265 208 52 405 111
764 227 l297 96 20 -24 c10 -13 18 -25 17 -26 -2 -2 -86 -23 -187 -48 -225
-56 -381 -99 -609 -170 -96 -29 -239 -72 -318 -95 -152 -44 -329 -111 -476
-179 -107 -49 -306 -161 -306 -172 0 -4 37 9 83 30 195 90 469 187 712 252 83
22 340 103 573 181 233 77 425 138 428 135 3 -3 -39 -19 -93 -37 -145 -48
-400 -149 -553 -220 -74 -34 -209 -96 -300 -137 -230 -103 -700 -352 -768
-406 -32 -25 6 -11 156 58 190 88 632 284 632 280 0 -1 -37 -24 -82 -50 -101
-58 -248 -159 -343 -234 -82 -65 -237 -212 -231 -218 3 -3 33 18 67 47 74 61
337 236 466 309 223 126 1058 525 1076 514 4 -2 7 -12 7 -22 0 -13 -47 -35
-211 -96 -215 -79 -487 -207 -739 -347 -74 -41 -145 -78 -157 -82 -13 -4 -23
-13 -23 -20 0 -7 -32 -34 -71 -60 -39 -26 -69 -49 -67 -51 2 -2 53 21 113 51
117 58 410 184 547 236 46 17 206 82 356 145 151 63 275 113 277 111 2 -1 5
-11 7 -21 3 -20 -95 -63 -527 -228 -295 -112 -531 -232 -754 -380 -100 -67
-180 -124 -177 -126 3 -3 63 26 133 65 271 148 433 223 738 342 205 80 421
173 544 234 l69 35 16 -24 16 -24 -193 -97 c-244 -123 -413 -217 -602 -334
-210 -130 -504 -297 -673 -382 -79 -40 -139 -74 -134 -76 38 -12 596 250 827
388 238 143 266 159 260 151 -3 -5 -76 -56 -162 -114 -168 -111 -365 -225
-608 -352 -154 -80 -210 -114 -202 -122 3 -2 19 3 37 12 17 9 101 45 188 81
381 159 559 264 962 567 244 183 251 187 86 47 -60 -51 -167 -149 -239 -217
-159 -152 -257 -231 -410 -333 -119 -79 -301 -177 -369 -200 -21 -6 -38 -16
-38 -20 0 -5 6 -8 13 -5 144 45 201 67 302 115 115 55 259 144 355 217 77 59
-150 -155 -245 -232 -50 -40 -134 -103 -185 -140 -168 -118 -121 -104 104 32
229 139 390 286 731 672 l190 214 13 -49 c7 -27 19 -65 26 -84 l13 -36 -131
-180 c-72 -99 -161 -218 -197 -265 -37 -46 -109 -144 -160 -217 l-94 -134
-125 -65 c-270 -141 -598 -303 -614 -303 -9 0 -34 -11 -54 -24 -21 -13 -83
-48 -138 -77 -112 -59 -184 -106 -184 -119 0 -5 -28 -25 -62 -46 -86 -51 -231
-169 -355 -288 -78 -76 -120 -126 -173 -210 -90 -143 -98 -152 -204 -226 -171
-119 -273 -225 -322 -336 -34 -77 -124 -377 -124 -414 0 -16 -5 -32 -10 -35
-6 -3 -10 -21 -10 -38 -1 -45 -66 -294 -84 -322 -9 -13 -33 -36 -53 -52 -21
-15 -41 -32 -45 -38 -14 -19 -8 -56 18 -107 14 -28 33 -74 41 -101 22 -73 19
-76 -179 -202 -35 -22 -92 -55 -128 -74 -36 -18 -77 -42 -92 -53 l-28 -19 0
-195 0 -195 33 26 c124 100 198 150 307 207 121 63 207 110 242 132 14 8 24 4
50 -20 18 -17 63 -52 100 -77 36 -26 93 -76 125 -112 73 -81 152 -141 203
-155 38 -10 120 -88 120 -115 0 -25 55 -60 230 -145 127 -62 149 -72 220 -95
30 -10 105 -39 165 -65 61 -26 139 -53 175 -60 36 -6 85 -16 110 -21 56 -11
177 -28 248 -34 30 -3 70 -9 90 -14 20 -5 69 -13 107 -17 39 -4 75 -8 80 -9
92 -11 132 -15 195 -20 41 -3 129 -12 195 -20 151 -19 237 -19 299 0 26 8 52
12 57 9 5 -3 9 -1 9 4 0 5 23 17 51 26 28 9 130 56 227 103 190 92 220 105
382 163 58 20 129 49 159 64 30 14 61 26 68 26 18 0 139 42 263 91 58 22 143
52 190 64 47 13 98 28 113 34 35 14 50 14 42 1 -5 -9 94 -145 100 -138 2 2 22
50 44 108 l41 105 52 23 c28 12 52 21 53 20 2 -2 -26 -75 -61 -162 -35 -87
-64 -166 -64 -174 0 -8 13 -31 28 -51 49 -62 133 -191 125 -191 -4 0 -30 7
-57 15 -27 8 -68 15 -91 15 -24 0 -94 9 -156 21 -171 32 -175 32 -214 19 -20
-6 -55 -26 -78 -44 -23 -17 -57 -38 -75 -45 -34 -14 -82 -64 -82 -86 0 -7 -11
-15 -23 -19 -62 -15 -127 -112 -127 -188 0 -20 -5 -40 -11 -44 -19 -11 -3
-159 25 -244 99 -298 208 -553 289 -677 26 -41 47 -76 47 -78 0 -16 146 -237
183 -279 85 -93 198 -225 245 -285 26 -33 83 -102 126 -153 44 -51 104 -131
134 -178 109 -168 124 -180 417 -337 248 -133 282 -148 386 -181 208 -66 244
-75 302 -73 31 1 67 1 80 1 12 -1 72 -2 132 -4 194 -4 182 -1 211 -47 14 -22
23 -43 21 -46 -3 -2 6 -16 19 -30 26 -28 82 -141 106 -213 10 -32 12 -53 5
-71 -8 -22 -2 -40 42 -119 56 -99 85 -188 102 -315 6 -44 16 -109 22 -145 7
-36 11 -92 9 -124 l-3 -59 -70 69 -70 69 -17 -23 c-9 -12 -30 -46 -46 -76
l-29 -53 131 -194 c72 -107 161 -230 197 -274 89 -108 355 -391 622 -663 120
-122 217 -223 216 -222 -1 0 -87 61 -189 136 -213 154 -330 246 -459 360 -49
43 -142 120 -205 170 -148 116 -687 524 -693 524 -3 0 -14 -27 -26 -60 l-20
-61 171 -202 c350 -413 485 -556 943 -996 l200 -192 -125 79 c-69 43 -186 122
-260 175 -222 158 -387 269 -535 359 -262 159 -913 524 -920 516 -4 -4 1076
-998 1158 -1066 98 -82 303 -227 592 -420 160 -107 292 -196 294 -199 33 -29
-586 275 -744 366 -152 87 -1455 744 -1462 737 -10 -10 381 -378 577 -543 224
-190 493 -356 1300 -801 41 -23 73 -42 70 -42 -3 0 -484 180 -1070 400 -585
219 -1066 397 -1068 395 -2 -2 16 -20 40 -41 23 -21 95 -90 159 -153 64 -63
134 -125 155 -138 61 -38 327 -170 589 -293 132 -62 307 -146 389 -187 257
-129 509 -236 936 -399 135 -51 241 -93 235 -94 -48 -1 -534 91 -705 135 -224
56 -646 155 -1200 280 -179 40 -338 77 -355 80 -66 16 -1 -17 225 -113 869
-370 924 -390 1722 -617 230 -66 416 -120 415 -121 -1 0 -90 3 -197 7 -247 10
-441 26 -550 44 -197 34 -1520 188 -1529 179 -2 -2 -2 -6 0 -8 7 -6 698 -233
884 -290 323 -99 415 -121 615 -150 115 -17 747 -97 930 -117 l115 -13 -125
-18 c-242 -33 -492 -58 -591 -58 -134 0 -359 -22 -784 -75 -502 -64 -595 -77
-595 -85 0 -4 53 -12 118 -18 64 -7 198 -21 297 -32 511 -55 628 -61 1117 -60
l467 1 -35 -61 c-30 -49 -43 -62 -73 -69 -20 -5 -94 -24 -166 -41 -175 -43
-1398 -394 -1414 -407 -16 -12 34 -10 250 7 526 43 808 76 1034 120 82 17 152
30 156 30 3 0 -22 -55 -55 -122 -34 -68 -85 -173 -113 -233 l-50 -110 -344
-179 c-331 -172 -375 -196 -353 -196 5 0 149 47 320 104 l310 103 -38 -101
c-93 -245 -178 -542 -233 -812 -19 -97 -35 -180 -35 -185 0 -5 2454 -9 5818
-8 5028 1 5808 3 5747 15 -38 8 -184 35 -324 60 -140 24 -256 46 -258 48 -1 1
24 128 56 282 175 825 243 1235 381 2304 30 229 30 235 12 250 -11 8 -75 58
-143 110 -219 168 -428 393 -568 610 -86 132 -262 480 -243 480 4 0 20 -26 37
-58 63 -121 229 -357 343 -487 181 -206 328 -346 511 -487 60 -46 93 -65 96
-56 2 7 13 87 24 177 11 90 22 165 24 167 1 2 182 28 402 59 220 31 407 58
416 61 14 4 17 -9 23 -88 9 -129 9 -594 1 -765 l-8 -141 41 -21 c23 -12 44
-21 47 -21 3 0 5 633 5 1408 l0 1407 -154 50 -154 50 38 70 c56 102 101 212
191 462 l79 222 0 185 0 184 -42 6 c-72 11 -82 27 -15 24 l57 -3 0 2148 c0
1716 -3 2147 -12 2141 -7 -5 -34 -23 -60 -42 l-48 -34 -11 26 c-11 24 -8 29
39 71 28 26 61 54 72 63 20 17 20 17 18 1264 l-3 1247 -104 -174 c-56 -96
-105 -175 -107 -175 -5 0 2 16 115 280 l101 234 0 501 0 500 -41 -75 c-23 -41
-67 -122 -98 -180 l-58 -105 5 -82 c2 -45 1 -111 -3 -148 -6 -62 -8 -65 -28
-59 -12 4 -38 17 -57 30 -19 13 -40 24 -46 24 -6 0 -22 -20 -35 -44 -28 -53
-36 -54 -14 -3 23 56 20 62 -44 81 -58 17 -59 18 -51 46 11 38 33 250 27 257
-6 5 -6 5 -203 -352 -81 -148 -203 -366 -271 -484 -68 -117 -123 -215 -123
-218 0 -2 -16 -29 -35 -59 -80 -124 -129 -210 -160 -279 -45 -98 -58 -102 -29
-7 14 42 40 129 59 192 19 63 61 196 94 294 34 99 59 181 57 183 -2 2 -45 -72
-96 -164 -51 -93 -121 -213 -156 -268 -36 -59 -68 -124 -76 -155 -13 -51 -21
-61 -103 -132 -49 -42 -91 -75 -93 -73 -2 1 21 52 51 111 46 92 56 123 66 198
13 95 20 110 99 204 56 67 35 68 -27 0 l-48 -52 36 181 c20 100 39 185 43 189
5 4 8 18 8 31 0 13 25 130 56 261 31 130 58 248 60 262 8 42 142 521 178 637
19 59 68 209 110 333 l75 225 -137 7 c-74 4 -137 6 -139 4 -2 -1 -42 -124 -89
-271 l-85 -269 -4 -321 c-2 -176 -5 -326 -6 -332 -2 -9 -21 -13 -55 -13 -49 0
-52 2 -49 23 6 42 17 337 12 337 -3 0 -17 -35 -31 -78 -25 -74 -31 -82 -136
-187 l-109 -109 15 60 c23 90 202 725 236 839 16 55 44 150 62 210 l33 110
-30 5 c-35 6 -32 -12 -37 258 -1 95 -6 174 -10 177 -4 2 -33 -89 -64 -203 -95
-342 -107 -377 -249 -757 -58 -154 -115 -310 -128 -347 -19 -51 -38 -81 -89
-135 -36 -37 -95 -102 -133 -145 -64 -72 -67 -78 -55 -103 l12 -27 39 43 39
44 -36 -49 c-40 -54 -41 -58 -22 -101 l13 -30 52 82 c53 83 73 107 48 56 -8
-16 -29 -70 -47 -120 l-32 -93 33 -115 c21 -73 30 -118 24 -124 -6 -6 -34 -7
-70 -2 -33 5 -63 7 -67 5 -3 -2 -9 -17 -13 -32 -3 -15 -24 -47 -46 -71 -22
-24 -38 -45 -37 -46 6 -6 128 24 202 49 45 16 82 24 87 19 7 -7 58 -212 74
-298 4 -23 37 -181 95 -455 22 -107 45 -217 50 -245 66 -368 166 -755 339
-1315 39 -128 66 -229 61 -234 -5 -5 -60 -12 -122 -16 -122 -8 -208 -34 -275
-86 -18 -14 -41 -24 -51 -22 -19 4 -21 14 -72 298 -75 416 -171 880 -215 1037
-30 107 -97 337 -131 453 -14 47 -29 101 -34 120 -6 19 -21 76 -35 125 -15 50
-37 133 -51 185 -14 52 -35 129 -46 170 -41 154 -42 162 -22 177 10 7 26 13
36 13 12 0 22 15 33 52 25 84 22 91 -27 57 -16 -12 -33 -18 -37 -13 -5 5 -41
113 -80 239 -40 127 -75 232 -78 235 -3 3 -7 1 -9 -5 -9 -24 -155 -238 -150
-220 3 11 17 72 31 135 15 63 35 151 46 195 18 68 19 85 8 122 -6 24 -15 46
-19 48 -4 3 -35 -68 -69 -158 -34 -89 -68 -175 -75 -192 -8 -16 -51 -132 -96
-258 -46 -125 -85 -226 -87 -224 -2 2 6 40 17 85 25 102 37 189 51 394 11 157
12 164 76 361 94 291 90 258 50 361 l-33 88 -33 -78 c-18 -44 -36 -82 -40 -86
-4 -4 -7 85 -8 198 l0 205 -44 140 c-24 76 -47 139 -50 139 -4 0 -12 -46 -19
-102 -17 -148 -90 -333 -334 -849 l-107 -226 -30 29 c-16 16 -29 35 -29 42 0
7 55 168 121 357 138 390 359 1043 359 1059 0 5 -9 10 -20 10 -10 0 -25 10
-31 23 -6 12 -13 23 -14 24 0 2 -32 -6 -70 -17 -38 -11 -70 -18 -72 -16 -2 1
26 15 62 31 36 15 65 32 65 39 0 20 -95 236 -103 233 -4 -1 -54 -110 -111
-242 -94 -217 -162 -368 -286 -630 -113 -240 -144 -305 -172 -372 -31 -75 -42
-87 -53 -54 -3 11 -28 44 -56 73 l-50 53 46 115 c76 190 173 412 278 640 54
118 139 312 189 430 49 118 94 223 99 232 10 19 -90 263 -105 257 -6 -2 -94
-173 -198 -379 -200 -400 -204 -404 -141 -157 19 76 33 140 31 142 -2 3 -28
-55 -58 -128 -29 -73 -66 -161 -82 -196 -16 -35 -70 -164 -120 -285 -99 -243
-186 -448 -228 -541 -15 -33 -49 -112 -75 -175 -27 -63 -51 -117 -52 -119 -2
-3 -17 8 -32 25 l-29 29 54 190 c107 373 306 951 467 1360 30 77 83 211 116
299 34 87 91 227 127 312 56 130 64 156 54 174 -6 12 -13 20 -15 18 -2 -2 -42
-91 -88 -198 -294 -676 -352 -800 -712 -1522 -399 -802 -824 -1624 -825 -1595
0 11 153 429 215 587 29 74 79 200 110 280 31 80 59 151 62 159 4 8 0 12 -11
10 -11 -3 -58 -81 -127 -214 -181 -344 -327 -608 -539 -970 -65 -110 -125
-215 -134 -233 -30 -58 -28 -28 3 49 40 102 182 432 383 894 94 215 200 458
235 540 36 83 80 183 99 223 19 40 34 75 34 77 0 3 52 126 116 273 64 147 152
361 196 477 194 513 422 1016 661 1462 l88 163 -17 31 c-8 17 -19 27 -24 23
-4 -5 -185 -319 -402 -699 -399 -697 -625 -1088 -771 -1335 -44 -74 -153 -268
-242 -430 -297 -541 -337 -613 -487 -879 -82 -146 -147 -270 -144 -277 8 -21
-16 -33 -73 -36 -48 -3 -56 -7 -73 -33 -23 -38 -23 -48 0 -36 33 18 163 43
188 37 13 -4 24 -12 24 -20 0 -29 -31 -38 -138 -44 l-107 -5 -124 -244 c-68
-134 -125 -242 -127 -240 -2 2 23 79 56 171 33 92 60 173 60 178 0 6 -50 -61
-111 -148 -101 -143 -142 -198 -127 -169 3 6 67 125 142 266 75 141 136 259
136 262 0 3 -47 3 -105 0 -71 -4 -105 -3 -105 5 0 17 84 52 152 63 34 6 73 13
84 15 33 6 60 60 139 279 40 110 100 273 134 363 34 89 61 165 61 168 0 2 -9
0 -19 -6 -25 -13 -81 -13 -81 0 0 6 8 13 18 16 9 4 36 13 59 23 l43 16 56 145
c122 315 289 722 352 860 252 551 654 1298 1020 1897 78 127 142 234 142 237
0 5 -46 -7 -185 -53 -71 -23 -94 -35 -108 -57 -29 -45 -519 -1035 -682 -1379
-81 -170 -234 -498 -341 -728 -345 -741 -577 -1184 -915 -1745 -55 -90 -99
-165 -99 -166 0 -2 37 -6 83 -8 135 -7 206 -60 149 -111 -30 -27 -102 -19
-274 29 -12 3 -24 -8 -42 -39 -14 -24 -26 -46 -26 -49 0 -3 30 1 68 8 90 18
205 18 200 2 -7 -19 -92 -38 -201 -45 l-99 -6 -94 -141 c-52 -77 -94 -138 -94
-135 0 3 37 82 81 175 216 450 496 1048 856 1827 315 684 457 967 701 1397
213 374 500 829 658 1040 35 46 62 85 60 87 -4 4 -198 -62 -225 -76 -29 -16
-14 9 -549 -916 -372 -644 -733 -1260 -889 -1516 -99 -162 -228 -382 -288
-489 -161 -290 -303 -540 -441 -777 -69 -117 -127 -219 -130 -228 -5 -12 4
-15 54 -15 66 0 87 -14 56 -37 -19 -14 -90 -14 -125 1 -12 5 -35 -26 -104
-141 -144 -241 -388 -634 -391 -630 -5 4 232 523 445 977 493 1048 1253 2439
1893 3464 55 87 98 160 95 162 -6 7 -328 -134 -349 -153 -11 -10 -84 -103
-162 -208 -1011 -1351 -1018 -1361 -1690 -2145 -219 -256 -405 -475 -413 -487
-12 -18 -234 -576 -319 -804 l-25 -66 76 -164 c257 -556 611 -1087 1048 -1576
84 -94 92 -107 104 -164 14 -70 57 -167 105 -236 81 -119 298 -314 445 -400
61 -35 198 -94 368 -157 109 -41 174 -73 297 -149 435 -268 866 -462 1308
-587 80 -23 115 -29 118 -21 3 8 8 7 16 -3 6 -9 61 -26 131 -41 114 -25 169
-43 95 -31 -19 3 -73 8 -119 11 l-85 7 29 -39 c16 -21 56 -69 89 -108 99 -117
135 -222 136 -390 2 -281 182 -665 440 -939 136 -145 420 -353 670 -491 58
-32 130 -75 160 -95 64 -44 160 -142 160 -164 0 -9 -11 -23 -24 -32 -23 -14
-31 -14 -103 6 -125 34 -490 213 -668 327 -176 114 -386 307 -500 461 -33 45
-63 78 -66 74 -8 -8 -56 -268 -65 -353 l-6 -55 -112 -22 c-270 -54 -656 -88
-881 -79 -239 10 -448 54 -770 162 -266 89 -620 244 -854 374 l-73 42 6 -27
c10 -38 154 -424 219 -584 258 -639 300 -704 941 -1475 405 -487 433 -519 526
-609 l88 -85 -147 -35 c-506 -124 -774 -211 -962 -313 l-46 -24 36 -69 c20
-38 33 -72 29 -75 -4 -4 -32 19 -62 51 l-54 59 -44 -22 c-24 -12 -95 -31 -159
-42 -64 -12 -184 -36 -267 -54 -84 -19 -152 -33 -152 -31 0 1 20 37 46 79 25
43 43 79 41 81 -2 2 -48 -40 -101 -94 l-97 -99 -117 -31 c-64 -17 -188 -54
-275 -82 -87 -27 -160 -50 -162 -50 -1 0 16 44 40 98 56 127 109 284 190 567
62 214 65 228 48 241 -17 12 -43 19 -43 11 0 -15 -79 -308 -80 -295 0 16 53
261 65 300 13 41 -12 14 -38 -41 -16 -32 -100 -190 -188 -352 l-159 -292 -26
-141 c-35 -191 -34 -189 -40 -184 -5 6 13 194 22 221 13 41 -17 12 -57 -55
-23 -40 -66 -109 -94 -153 -50 -77 -54 -81 -120 -107 -38 -15 -69 -27 -70 -25
-1 1 27 80 62 176 91 248 171 549 263 997 17 82 35 164 39 182 5 17 6 32 2 32
-20 0 -215 -535 -275 -755 -34 -126 -32 -82 4 83 57 255 127 486 224 741 33
85 39 131 17 131 -5 0 -180 -402 -391 -892 -210 -491 -389 -900 -397 -908 -13
-13 -14 -13 -9 6 19 63 159 613 196 769 23 99 66 277 96 395 77 313 113 478
135 625 22 148 36 473 22 524 l-9 35 -56 -95 c-92 -156 -115 -201 -133 -264
-17 -60 -334 -1083 -406 -1310 -21 -66 -38 -113 -38 -104 -1 9 12 148 29 310
16 162 36 371 45 464 8 94 22 240 31 326 23 235 20 240 -57 79 -36 -74 -85
-183 -109 -242 -24 -59 -45 -106 -46 -105 -2 1 10 56 26 122 38 161 91 315
158 460 41 89 56 135 60 177 4 58 -14 297 -23 307 -9 8 -32 -30 -109 -179
-114 -222 -144 -298 -166 -435 -18 -109 -75 -470 -178 -1130 l-37 -240 -7 585
c-7 612 -16 935 -26 926 -9 -10 -61 -176 -97 -311 -41 -157 -82 -367 -91 -467
-4 -40 -10 -82 -15 -93 -8 -21 -6 3 11 215 25 298 78 572 162 830 27 86 30
103 24 180 -9 140 -57 390 -74 390 -7 0 -40 -48 -123 -177 l-46 -72 -7 -187
c-4 -103 -9 -219 -11 -258 -3 -39 -10 -152 -15 -251 -6 -99 -13 -225 -16 -280
-3 -55 -9 -158 -15 -230 -5 -71 -9 -159 -10 -195 l-1 -65 -9 45 c-20 103 -119
904 -119 963 0 24 -4 37 -11 35 -28 -9 -179 -420 -249 -677 -33 -120 -40 -161
-41 -245 -2 -123 -2 -120 -60 263 -22 151 -44 284 -49 295 -6 16 -15 -3 -43
-89 -37 -116 -78 -259 -108 -385 l-19 -75 6 95 c11 199 55 475 103 642 l19 67
-28 142 c-31 148 -75 301 -133 459 -66 181 -102 270 -108 270 -10 0 -139 -171
-139 -184 0 -23 50 -270 65 -319 27 -91 173 -1172 160 -1185 -3 -3 -5 1 -5 9
0 8 -27 102 -61 209 -98 315 -127 412 -200 660 -86 292 -109 360 -118 360 -4
0 -29 -44 -55 -97 -54 -111 -54 -110 0 44 l38 112 -33 83 c-19 46 -57 134 -84
196 l-50 113 -44 -43 c-25 -24 -62 -63 -83 -88 l-38 -45 43 -225 c24 -124 57
-288 75 -365 46 -206 231 -966 242 -994 4 -13 7 -26 4 -28 -2 -2 -12 20 -21
49 -99 302 -339 937 -402 1063 -96 191 -135 256 -148 245 -7 -6 -54 -71 -104
-145 l-92 -135 115 -337 c63 -186 124 -365 135 -397 12 -33 20 -60 19 -62 -2
-1 -79 146 -173 327 -93 181 -172 329 -175 329 -3 0 -43 -72 -88 -159 l-83
-159 26 -58 c30 -67 28 -80 -4 -24 -12 22 -26 40 -31 40 -8 0 -33 -57 -101
-234 l-38 -100 82 -155 c45 -86 84 -160 86 -166 2 -5 -38 46 -89 115 -50 69
-95 124 -99 123 -3 -1 -13 -25 -23 -55 -20 -65 -22 -53 -4 25 l14 58 -161 222
c-229 318 -469 628 -486 627 -6 -1 -110 -131 -124 -156 -22 -38 349 -689 823
-1445 39 -63 65 -107 57 -99 -8 8 -155 187 -326 398 -360 441 -390 475 -829
941 -32 33 -50 66 -67 117 -13 39 -38 94 -54 123 -17 28 -40 74 -52 103 -13
29 -42 83 -66 121 -59 93 -133 224 -133 236 0 6 18 20 39 31 51 25 55 33 40
75 -12 31 -9 45 28 157 74 219 74 280 1 430 -23 47 -32 85 -38 148 -7 78 -14
107 -39 165 -74 170 -110 241 -147 295 -19 27 -34 52 -34 55 0 11 -181 276
-347 506 -84 117 -195 237 -275 299 -25 19 -77 59 -116 89 l-70 55 98 120
c199 247 453 522 634 686 64 58 116 108 116 112 0 9 -138 -68 -258 -143 -218
-138 -421 -306 -625 -520 l-135 -141 -38 25 c-22 14 -52 36 -68 50 l-30 24 69
109 c376 603 857 1155 1348 1550 147 118 395 287 490 335 70 36 72 37 65 45
-3 3 -91 -37 -194 -89 -518 -259 -872 -513 -1275 -916 -264 -264 -441 -479
-636 -773 -83 -126 -84 -127 -111 -116 -15 7 -36 20 -47 29 -11 10 -43 28 -72
41 l-52 23 73 175 c147 351 322 720 341 720 7 0 77 39 155 86 78 47 153 89
166 94 29 12 153 102 214 158 26 23 52 42 58 42 6 0 62 46 125 103 174 156
260 227 274 227 7 0 13 7 13 15 0 8 3 15 8 15 8 0 11 4 277 245 103 94 207
197 232 230 43 57 143 249 143 274 0 7 9 29 20 49 26 49 47 127 66 237 29 174
21 227 -55 362 l-24 42 18 56 c22 72 15 129 -26 213 -17 34 -43 100 -59 147
l-29 85 57 48 c32 26 70 57 86 70 16 12 27 25 24 27 -3 3 -42 -24 -87 -60 -69
-56 -82 -63 -87 -48 -18 51 -47 110 -68 138 l-24 31 152 141 c247 230 500 438
684 562 110 74 59 57 -100 -34 -265 -152 -519 -326 -746 -513 l-104 -85 -31
17 c-18 9 -50 30 -72 46 -22 16 -73 46 -112 66 -40 19 -73 40 -73 45 0 13 226
211 263 231 18 9 46 22 62 29 31 14 107 75 114 92 2 5 -7 6 -20 2 -30 -9 197
161 361 269 363 241 796 456 1120 556 147 46 138 42 120 47 -23 6 -304 -69
-490 -130 -609 -201 -1149 -513 -1633 -943 l-58 -52 -79 47 c-43 25 -95 55
-116 67 l-37 21 108 124 c275 315 658 661 907 819 34 22 57 40 49 40 -28 0
-269 -133 -406 -225 -217 -144 -342 -250 -577 -486 l-217 -218 -63 25 c-35 13
-80 29 -100 35 l-38 10 90 135 c611 913 1341 1533 2104 1788 193 65 437 119
604 133 120 10 81 23 -70 23 -557 0 -1184 -253 -1743 -703 -387 -311 -788
-763 -1085 -1224 l-85 -132 -93 0 -93 -1 47 88 c357 666 650 1092 999 1451
276 284 556 481 830 582 117 44 80 51 -47 9 -197 -66 -449 -210 -653 -374
-465 -375 -880 -910 -1279 -1648 l-47 -88 -55 0 c-29 0 -54 2 -54 4 0 11 146
318 241 508 421 840 875 1480 1374 1935 169 155 431 345 573 417 28 14 52 31
52 37 0 17 -219 -101 -360 -195 -211 -141 -368 -273 -601 -506 -305 -305 -511
-558 -764 -940 -223 -337 -381 -615 -581 -1025 l-115 -235 -77 0 c-90 0 -122
7 -122 26 0 23 158 381 270 611 486 999 1045 1752 1677 2258 227 181 533 370
757 467 126 54 155 82 44 42 -704 -254 -1434 -845 -2001 -1624 -332 -456 -637
-1008 -864 -1565 -25 -60 -47 -111 -48 -113 -8 -8 -65 30 -65 43 0 21 95 280
180 490 474 1174 1053 2001 1696 2427 54 36 142 89 194 117 128 68 86 65 -48
-4 -524 -268 -1073 -848 -1504 -1589 l-57 -100 -105 -42 -105 -42 45 90 c174
347 399 715 601 984 313 418 681 738 996 865 45 19 74 35 65 37 -27 5 -223
-82 -339 -151 -550 -327 -1063 -927 -1481 -1731 l-93 -180 -69 -28 c-38 -15
-70 -28 -72 -28 -1 0 19 58 46 128 161 434 409 940 520 1065 49 54 59 77 17
40 -25 -23 77 137 188 294 386 544 862 938 1365 1128 85 33 85 33 77 41 -3 3
-52 -8 -108 -26 -493 -153 -1015 -567 -1444 -1145 -88 -118 -240 -344 -306
-455 -29 -50 -80 -106 -189 -210 -170 -161 -167 -165 -65 65 348 787 829 1452
1330 1836 l75 57 53 -14 c62 -16 124 -18 232 -4 44 5 168 19 275 31 166 18
216 28 340 66 172 53 250 86 282 120 13 14 39 31 57 39 19 8 58 32 85 53 28
21 74 53 103 70 l52 32 78 -36 c141 -65 215 -105 228 -122 6 -7 22 -21 36 -31
76 -50 215 -146 219 -152 3 -4 13 -9 23 -13 9 -3 17 -13 17 -22 0 -8 4 -15 9
-15 8 0 122 -111 216 -211 28 -29 71 -86 97 -127 49 -78 102 -142 118 -142 18
0 50 44 66 93 20 61 14 123 -15 144 -12 8 -21 20 -21 28 0 7 -19 36 -42 65
-245 301 -404 418 -845 621 -62 29 -113 56 -113 61 0 5 12 27 27 49 l27 42
-37 31 c-31 26 -40 43 -53 95 -8 35 -29 107 -46 160 -29 87 -37 102 -93 157
-33 34 -85 75 -115 92 -31 17 -71 47 -90 67 l-34 35 -1603 0 -1603 0 -6 -26
c-12 -49 4 -140 35 -194 4 -8 16 -32 26 -53 10 -20 34 -55 52 -77 l35 -40 -13
-113 c-17 -147 -18 -699 -1 -872 49 -501 151 -1014 287 -1445 l37 -115 -13
-109 c-11 -99 -13 -106 -25 -84 -7 13 -54 147 -104 297 -87 261 -91 274 -74
292 19 22 12 38 -9 20 -12 -9 -22 17 -60 151 -210 741 -310 1377 -324 2061 -5
281 -7 307 -23 307 -15 0 -19 -19 -30 -127z m618 -457 l63 -41 -5 -64 c-3 -36
-11 -174 -18 -308 -18 -361 7 -852 66 -1288 22 -167 22 -173 6 -265 l-17 -95
-11 40 c-169 616 -258 1336 -237 1921 l7 204 42 -31 c22 -17 69 -50 104 -73z
m264 -173 c45 -26 49 -30 44 -58 -37 -208 -58 -510 -58 -811 0 -211 -3 -274
-17 -335 l-17 -74 -8 65 c-17 159 -27 344 -30 585 -5 307 11 655 31 655 3 0
27 -12 55 -27z m233 -114 c28 -13 51 -24 52 -25 2 0 -19 -61 -46 -135 -27 -74
-70 -199 -96 -279 l-46 -145 6 157 c5 148 29 412 41 450 4 13 10 16 22 10 9
-5 40 -19 67 -33z m331 -129 c20 0 77 -22 93 -36 2 -2 -68 -92 -155 -200 -191
-237 -197 -243 -191 -224 50 169 141 433 157 453 18 22 25 25 46 17 14 -6 36
-10 50 -10z m336 -94 c18 -8 68 -22 111 -31 42 -10 77 -20 77 -24 0 -3 -211
-218 -470 -476 -258 -258 -470 -466 -470 -462 0 5 15 70 34 146 l34 138 184
229 c101 126 231 291 288 367 l104 139 38 -6 c21 -3 52 -13 70 -20z m362 -109
l56 -23 -43 -32 c-175 -125 -461 -400 -633 -607 -207 -251 -443 -597 -606
-890 -28 -50 -38 -61 -34 -40 75 406 75 406 113 449 21 23 132 142 249 266
258 275 527 568 694 758 69 78 130 142 136 142 6 0 36 -10 68 -23z m-3161
-715 l78 -79 -21 -103 c-12 -57 -24 -131 -27 -166 -8 -85 -14 -93 -51 -63 -29
22 -31 28 -31 89 0 95 15 272 24 295 8 18 7 18 -7 7 -19 -15 -43 -114 -54
-217 -13 -130 -25 -115 -19 25 7 180 16 290 24 290 4 0 41 -35 84 -78z m150
-285 c-12 -62 -26 -140 -29 -175 -7 -62 -7 -63 -26 -45 -17 17 -17 28 -8 143
5 69 12 153 16 188 l6 64 33 -32 32 -31 -24 -112z m81 47 l22 -27 -18 -81 c-9
-44 -23 -116 -29 -159 -9 -63 -14 -76 -24 -65 -9 10 -10 39 -4 113 13 170 21
245 26 245 2 0 14 -12 27 -26z m447 -199 c-20 -68 -39 -121 -43 -117 -3 4 5
70 17 147 13 77 24 142 25 145 0 3 8 -7 18 -23 18 -27 18 -29 -17 -152z
m-1464 93 c-2 -13 -4 -3 -4 22 0 25 2 35 4 23 2 -13 2 -33 0 -45z m1168 -103
c-6 -38 -35 -267 -35 -273 0 -2 -20 14 -45 35 -52 45 -53 50 -30 243 8 69 15
130 15 135 0 6 23 -15 51 -45 46 -51 49 -58 44 -95z m-1088 73 c-2 -13 -4 -5
-4 17 -1 22 1 32 4 23 2 -10 2 -28 0 -40z m1541 -232 c-11 -28 -25 -66 -31
-83 -6 -18 -13 -33 -17 -33 -4 0 -30 27 -58 61 -37 43 -51 67 -47 82 2 12 11
63 20 112 25 142 20 140 90 20 l63 -108 -20 -51z m-2238 137 c0 -14 -34 25
-51 58 -29 57 -23 57 16 -1 19 -29 35 -54 35 -57z m695 -350 c24 -114 26 -153
5 -98 -12 31 -54 276 -70 405 -19 155 -9 137 16 -28 13 -90 35 -215 49 -279z
m595 287 l-6 -105 -2 120 c-1 66 2 113 6 105 4 -8 5 -62 2 -120z m-583 78 c-3
-8 -6 -5 -6 6 -1 11 2 17 5 13 3 -3 4 -12 1 -19z m0 -50 c-3 -7 -5 -2 -5 12 0
14 2 19 5 13 2 -7 2 -19 0 -25z m1134 1 c-5 -13 -10 -19 -10 -12 -1 15 10 45
15 40 3 -2 0 -15 -5 -28z m-910 -392 c16 -82 39 -176 49 -210 11 -34 18 -62
16 -64 -1 -1 -16 12 -34 30 -29 30 -32 41 -51 172 -23 163 -41 351 -40 415 1
25 8 -9 15 -75 8 -66 28 -187 45 -268z m479 133 c0 -107 5 -267 10 -355 11
-163 46 -470 56 -486 13 -22 -8 -6 -45 33 -39 42 -39 43 -50 158 -7 63 -14
133 -16 155 -2 22 -7 200 -11 395 l-7 355 32 -29 31 -30 0 -196z m1005 170 c5
-21 3 -20 -14 8 -12 18 -21 42 -20 55 1 19 2 18 14 -8 7 -16 16 -41 20 -55z
m-488 21 l39 -49 -23 -113 c-12 -63 -23 -125 -23 -139 0 -24 -1 -24 -37 12
l-36 37 18 150 c10 83 20 151 21 151 1 0 20 -22 41 -49z m-1210 -8 c-3 -10 -5
-4 -5 12 0 17 2 24 5 18 2 -7 2 -21 0 -30z m1564 -147 c-24 -67 -29 -75 -41
-61 -13 16 -9 52 21 160 l11 38 18 -30 c18 -30 18 -31 -9 -107z m-1525 -43
c14 -61 36 -144 49 -184 14 -40 24 -73 22 -75 -1 -1 -19 12 -39 29 l-37 32
-16 160 c-14 147 -19 260 -8 180 2 -16 15 -80 29 -142z m736 -219 l-9 -329 -1
340 c-2 240 1 336 9 328 7 -7 8 -108 1 -339z m1261 288 c15 -43 15 -44 -29
-136 -24 -51 -44 -99 -44 -107 0 -10 -3 -10 -11 -2 -9 9 -2 47 27 152 21 77
39 139 40 138 1 -1 9 -21 17 -45z m-373 -174 c-7 -32 -16 -58 -21 -58 -4 0
-21 18 -37 41 -26 34 -29 45 -22 72 5 18 14 52 20 77 l12 45 30 -59 c29 -58
30 -61 18 -118z m-802 -63 c-1 -153 -5 -202 -13 -193 -8 9 -9 44 -4 113 4 55
7 142 8 193 1 50 3 92 6 92 3 0 5 -92 3 -205z m532 135 l39 -52 -15 -46 c-8
-26 -22 -73 -32 -104 -9 -32 -20 -58 -23 -58 -3 0 -18 13 -33 29 l-27 28 15
99 c24 151 27 166 32 161 3 -2 22 -28 44 -57z m-959 -345 c12 -72 24 -143 27
-160 5 -29 4 -29 -14 -11 -22 22 -40 170 -48 391 l-5 140 9 -115 c5 -64 18
-174 31 -245z m1819 -175 l53 -135 -12 -100 c-7 -55 -15 -103 -18 -108 -6 -10
-136 262 -227 477 l-68 158 33 92 c17 50 36 102 41 116 9 22 19 -1 78 -170 37
-107 91 -256 120 -330z m-2470 485 c10 -12 10 -15 -1 -15 -31 -1 -142 -12
-267 -26 -74 -9 -136 -14 -138 -12 -2 3 83 18 189 35 105 17 195 31 198 32 4
1 12 -6 19 -14z m1230 -275 l-1 -205 -39 45 -39 45 0 205 0 205 39 -45 40 -45
0 -205z m-1170 233 c0 -5 13 -17 30 -28 37 -25 23 -35 -51 -35 -67 0 -324 -24
-502 -46 -70 -8 -132 -14 -138 -12 -5 2 68 18 163 36 95 18 238 46 318 62 159
31 180 34 180 23z m1920 -128 c70 -155 65 -185 -13 -77 l-59 81 7 56 c4 30 8
55 10 55 1 0 26 -52 55 -115z m-296 -46 c-20 -82 -30 -107 -36 -95 -9 16 3 84
33 201 9 33 12 36 21 22 7 -13 2 -50 -18 -128z m-897 44 c-3 -10 -5 -2 -5 17
0 19 2 27 5 18 2 -10 2 -26 0 -35z m599 -107 c-5 -22 -22 -320 -19 -346 1 -8
-15 3 -34 25 l-35 40 6 155 c4 85 9 172 12 192 l6 37 35 -41 c23 -28 33 -48
29 -62z m411 -83 l-24 -106 -28 37 -28 37 17 102 c10 56 20 106 23 110 3 4 18
-11 34 -33 l30 -41 -24 -106z m-997 84 c0 -47 26 -222 45 -305 19 -82 20 -80
-14 -48 -29 28 -29 29 -35 174 -3 81 -8 170 -11 197 -3 34 -1 45 5 35 5 -8 10
-32 10 -53z m-418 -22 l30 -25 -144 0 c-178 0 -336 -13 -547 -46 -90 -14 -165
-23 -167 -21 -5 5 374 67 586 96 188 26 206 26 242 -4z m1573 -161 c17 -31 17
-33 -6 -118 -13 -47 -26 -86 -29 -86 -3 0 -24 28 -48 61 l-43 61 20 100 c12
56 21 103 21 107 0 7 57 -78 85 -125z m-1497 94 l21 -23 -162 -1 c-89 -1 -220
-7 -291 -13 -70 -7 -130 -10 -132 -8 -2 2 89 16 204 31 114 15 214 29 222 31
8 1 38 3 66 4 40 1 55 -3 72 -21z m632 -148 c9 -105 43 -322 67 -434 6 -27 4
-27 -37 17 -24 27 -46 63 -51 84 -5 21 -12 139 -15 263 -6 204 -5 224 9 210
11 -11 19 -51 27 -140z m408 -79 c-18 -90 -34 -159 -36 -152 -4 11 11 196 25
304 6 47 6 48 24 30 18 -18 18 -23 -13 -182z m-1635 172 c-7 -2 -19 -2 -25 0
-7 3 -2 5 12 5 14 0 19 -2 13 -5z m1357 -228 c1 -38 3 -92 5 -120 2 -27 6 -86
9 -129 l6 -79 -21 19 c-21 19 -22 19 -16 -1 3 -11 9 -33 13 -50 6 -27 5 -29
-9 -15 -17 16 -40 202 -52 430 l-7 115 36 -50 c33 -46 36 -56 36 -120z m-1813
149 c-3 -3 -12 -4 -19 -1 -8 3 -5 6 6 6 11 1 17 -2 13 -5z m1608 -179 c8 -55
17 -116 21 -135 l7 -35 -23 28 c-21 26 -23 40 -25 180 -2 84 -1 132 1 107 3
-25 11 -90 19 -145z m1812 20 c-44 -88 -100 -203 -124 -255 -24 -52 -43 -90
-43 -85 0 6 9 72 19 148 l19 138 103 107 c57 60 105 108 106 107 1 0 -35 -72
-80 -160z m-2275 148 c-40 -2 -103 -2 -140 0 -37 2 -4 3 73 3 77 0 107 -2 67
-3z m-249 -10 c-13 -2 -35 -2 -50 0 -16 2 -5 4 22 4 28 0 40 -2 28 -4z m1302
-185 c-8 -84 -16 -162 -18 -173 -2 -16 -8 -12 -35 22 l-32 41 30 139 c39 176
37 172 56 145 13 -19 13 -39 -1 -174z m-1412 175 c-7 -2 -19 -2 -25 0 -7 3 -2
5 12 5 14 0 19 -2 13 -5z m-146 -19 c-3 -3 -12 -4 -19 -1 -8 3 -5 6 6 6 11 1
17 -2 13 -5z m-54 -11 c-7 -2 -19 -2 -25 0 -7 3 -2 5 12 5 14 0 19 -2 13 -5z
m-50 -10 c-7 -2 -19 -2 -25 0 -7 3 -2 5 12 5 14 0 19 -2 13 -5z m1761 -98 c16
-24 16 -32 -3 -128 -11 -56 -23 -124 -26 -151 -4 -32 -10 -45 -16 -39 -7 7 -7
51 0 129 13 134 22 214 26 214 2 0 10 -11 19 -25z m446 -114 c39 -68 87 -155
106 -193 39 -78 41 -67 -25 -140 l-24 -28 -57 103 c-31 56 -75 131 -97 166
l-39 65 25 83 c14 45 29 79 33 75 3 -4 39 -63 78 -131z m-819 61 c25 -36 26
-45 32 -222 l6 -185 -40 45 -40 45 2 178 c1 97 5 177 8 177 3 -1 18 -18 32
-38z m498 -129 l44 -67 -24 -138 -24 -138 -53 67 c-29 36 -50 74 -48 82 2 9
14 71 27 139 13 67 25 122 28 122 4 0 26 -30 50 -67z m-929 37 c-19 -4 -57
-10 -85 -13 l-50 -6 50 14 c28 7 66 13 85 13 l35 0 -35 -8z m80 -44 l23 -25
-24 -5 c-13 -3 -94 -20 -179 -36 -277 -55 -480 -111 -805 -224 -61 -21 131 64
245 109 179 69 355 127 520 169 164 43 189 44 220 12z m613 -384 l6 -162 -75
89 -74 89 0 63 c0 35 4 80 9 99 6 19 15 54 21 78 l11 43 48 -68 48 -68 6 -163z
m427 88 l73 -120 -39 -46 c-22 -25 -45 -55 -53 -65 -13 -18 -17 -15 -66 52
l-53 70 29 107 c16 59 29 110 29 115 0 17 11 1 80 -113z m-613 3 c-2 -16 -4
-3 -4 27 0 30 2 43 4 28 2 -16 2 -40 0 -55z m-182 16 c14 -17 25 -33 23 -34
-2 -1 -57 -5 -122 -8 l-119 -5 84 39 c46 21 89 39 96 39 6 0 23 -14 38 -31z
m1141 -154 c20 -85 35 -157 33 -159 -2 -2 -12 -6 -23 -8 -14 -2 -30 22 -79
125 l-60 128 38 39 c21 22 42 37 46 35 4 -3 24 -75 45 -160z m724 -117 c-158
-315 -325 -705 -413 -961 -6 -15 -11 -14 -57 14 -27 17 -50 35 -50 41 0 47
277 725 400 979 l40 84 103 56 c56 32 105 57 108 58 3 1 -56 -122 -131 -271z
m-3150 232 c-8 -5 -19 -10 -25 -10 -5 0 -3 5 5 10 8 5 20 10 25 10 6 0 3 -5
-5 -10z m1707 -52 c-2 -13 -4 -3 -4 22 0 25 2 35 4 23 2 -13 2 -33 0 -45z m98
-77 l48 -70 -17 -107 c-9 -60 -18 -110 -20 -112 -7 -6 -86 101 -86 116 0 26
23 242 25 242 2 0 24 -31 50 -69z m-108 -3 c-2 -13 -4 -5 -4 17 -1 22 1 32 4
23 2 -10 2 -28 0 -40z m-266 -51 c7 -13 6 -18 -3 -21 -7 -2 -117 -29 -243 -60
-127 -30 -315 -78 -419 -106 -104 -27 -191 -49 -192 -47 -2 2 135 56 304 122
169 65 348 135 397 156 l90 38 28 -32 c15 -18 32 -40 38 -50z m859 -164 c0 -4
-106 -53 -114 -53 -3 0 -27 31 -54 69 l-50 68 56 56 56 56 53 -96 c29 -53 53
-98 53 -100z m-593 155 c-3 -8 -6 -5 -6 6 -1 11 2 17 5 13 3 -3 4 -12 1 -19z
m1052 -228 c-55 -129 -104 -244 -110 -255 -8 -18 -9 -17 -5 5 2 14 7 66 11
115 4 58 19 130 41 200 l34 111 62 31 c35 17 64 30 65 29 1 -1 -43 -107 -98
-236z m-835 30 c-21 -27 -39 -49 -40 -47 -1 1 5 39 14 84 l16 82 24 -35 23
-35 -37 -49z m-394 95 c0 -6 -33 -19 -75 -29 -42 -10 -20 10 25 22 43 13 50
13 50 7z m33 -39 c4 -9 -4 -16 -23 -19 -15 -4 -39 -9 -54 -13 -40 -10 -31 11
12 29 48 19 59 20 65 3z m928 -80 c-3 -15 -7 -10 -19 19 -13 31 -13 38 -1 46
10 6 15 1 19 -19 4 -15 4 -36 1 -46z m-895 37 c19 -26 18 -28 -26 -43 -36 -12
-42 -11 -60 5 -21 19 -21 19 22 36 24 9 45 17 47 18 2 1 10 -7 17 -16z m-177
-7 c-7 -7 -172 -66 -176 -63 -1 2 36 20 85 39 75 31 107 39 91 24z m600 -38
c19 -29 30 -54 25 -55 -5 -2 -34 -19 -64 -38 l-55 -34 -22 27 c-12 15 -22 31
-23 35 0 11 90 117 99 117 3 0 21 -24 40 -52z m-162 -25 c-3 -10 -5 -4 -5 12
0 17 2 24 5 18 2 -7 2 -21 0 -30z m546 -93 c62 -120 67 -135 67 -192 0 -93
-10 -98 -53 -25 -20 34 -70 114 -112 177 -42 63 -77 119 -78 124 -2 9 75 44
99 45 5 1 40 -57 77 -129z m-758 91 c-10 -10 -84 -29 -90 -23 -3 3 12 15 32
27 26 15 42 19 51 12 7 -5 10 -13 7 -16z m39 -40 c18 -19 17 -20 -20 -36 -34
-14 -39 -14 -57 2 -19 18 -18 18 20 35 21 10 38 18 39 18 0 0 9 -9 18 -19z
m471 -138 c43 -65 112 -170 153 -233 73 -112 74 -114 36 -86 -68 51 -177 138
-237 191 -55 47 -173 183 -165 190 4 4 122 54 129 55 3 0 41 -53 84 -117z
m-429 85 c4 -6 -5 -21 -22 -34 -26 -22 -30 -22 -44 -8 -10 11 -11 18 -4 21 6
2 20 10 30 18 23 18 31 18 40 3z m64 -83 c23 -25 23 -27 8 -53 -21 -35 -29
-34 -63 7 l-29 33 25 19 c31 24 31 24 59 -6z m85 -108 c101 -133 492 -653 499
-664 5 -9 -2 -12 -25 -10 -28 2 -42 17 -132 137 -98 132 -228 296 -360 454
-65 78 -66 79 -51 108 8 15 18 28 22 27 4 0 25 -24 47 -52z m-214 -99 c7 -12
6 -25 -2 -40 -12 -22 -13 -21 -60 32 -45 51 -47 56 -32 73 16 17 18 16 51 -15
18 -18 38 -41 43 -50z m-161 68 c0 -2 -8 -10 -17 -17 -16 -13 -17 -12 -4 4 13
16 21 21 21 13z m291 -216 c41 -47 132 -152 203 -235 71 -82 140 -162 153
-176 l24 -27 -35 -4 c-36 -4 -36 -4 -246 244 -187 221 -209 251 -200 269 6 11
15 19 19 17 4 -2 41 -41 82 -88z m555 -34 c55 -38 100 -70 102 -71 1 -1 -1
-36 -4 -78 l-7 -76 -46 67 c-38 55 -118 165 -175 242 -10 13 -9 13 10 0 12 -8
66 -46 120 -84z m-561 -207 c88 -105 164 -198 169 -207 4 -9 -7 1 -25 23 -46
54 -179 205 -256 289 -59 64 -74 87 -55 85 4 0 79 -86 167 -190z m-175 60 c11
-50 23 -67 121 -175 l109 -119 -41 -8 c-40 -8 -43 -7 -83 32 -23 23 -45 41
-48 41 -3 0 0 -22 7 -49 l12 -48 -56 -17 c-31 -10 -84 -33 -119 -52 -34 -19
-69 -34 -77 -34 -8 0 -89 -33 -180 -74 -92 -41 -160 -67 -152 -58 98 115 358
451 412 534 40 61 73 102 76 95 4 -7 12 -37 19 -68z m1061 -66 c27 -16 49 -32
48 -38 0 -5 -10 -37 -22 -70 -21 -59 -23 -60 -62 -63 l-40 -3 7 93 c8 114 7
108 14 108 3 0 28 -12 55 -27z m10219 -53 c0 -21 -45 -50 -77 -50 -46 0 -41
13 15 37 56 25 62 26 62 13z m1273 -102 l47 -78 -36 -77 c-20 -43 -44 -97 -55
-121 l-19 -43 -63 52 -64 52 53 132 c61 156 73 180 83 169 5 -5 29 -44 54 -86z
m-11287 44 c27 -14 30 -21 23 -39 -7 -19 -16 -23 -50 -23 -34 0 -40 3 -35 16
3 9 9 27 12 40 7 28 9 28 50 6z m12221 -19 c-3 -10 -5 -4 -5 12 0 17 2 24 5
18 2 -7 2 -21 0 -30z m-3517 7 l25 -7 -27 -7 c-34 -10 -77 2 -57 15 16 10 24
10 59 -1z m2102 -31 c18 -23 18 -27 3 -63 l-16 -38 -23 21 c-21 20 -22 26 -13
67 11 48 21 51 49 13z m-922 3 c0 -14 -47 -31 -69 -25 -31 8 -25 21 12 26 17
2 38 5 45 5 6 1 12 -2 12 -6z m2331 -153 c-8 -19 -10 -6 -10 57 -1 44 2 84 7
88 11 12 14 -117 3 -145z m-1447 52 c17 -18 17 -22 -3 -67 -19 -42 -23 -46
-37 -33 -12 13 -13 23 -3 67 7 29 15 52 19 52 4 0 15 -9 24 -19z m-1974 -1 c0
-5 -5 -10 -11 -10 -5 0 -7 5 -4 10 3 6 8 10 11 10 2 0 4 -4 4 -10z m3265 -432
c-41 -84 -72 -144 -69 -133 3 11 36 122 73 247 l66 226 3 -94 3 -94 -76 -152z
m-1365 202 c-23 -55 -44 -99 -46 -97 -2 1 11 54 28 115 28 100 33 111 47 98
13 -14 10 -27 -29 -116z m514 -9 c-2 -3 -26 17 -52 43 l-47 49 52 -44 c29 -24
50 -45 47 -48z m-94 -14 c0 -6 -11 0 -25 13 -14 13 -25 28 -25 33 0 6 11 0 25
-13 14 -13 25 -28 25 -33z m2545 -63 c-20 -55 -53 -146 -73 -202 -34 -98 -39
-106 -89 -145 -29 -23 -53 -45 -53 -49 0 -4 -8 -12 -19 -17 -17 -10 -16 0 12
112 29 117 33 126 95 207 84 110 156 198 160 195 1 -1 -14 -47 -33 -101z
m-2571 -40 c26 -30 46 -58 43 -61 -11 -10 -116 88 -110 103 8 22 14 18 67 -42z
m2 -76 l29 -33 -32 29 c-18 17 -33 31 -33 33 0 8 8 1 36 -29z m-52 -33 l47
-55 -46 -102 c-26 -57 -48 -104 -50 -106 -7 -8 -96 62 -92 72 17 50 90 246 92
246 0 0 23 -25 49 -55z m619 -4 c22 -37 21 -39 -6 -83 -20 -33 -24 -35 -41
-23 -19 14 -19 16 -1 75 10 33 21 60 24 60 4 0 14 -13 24 -29z m-2175 -59 c4
-13 0 -14 -33 -15 -49 -1 -75 4 -75 12 0 19 102 21 108 3z m2127 -72 c10 -11
14 -20 8 -20 -5 0 -18 9 -28 20 -10 11 -14 20 -8 20 5 0 18 -9 28 -20z m976
-57 c-5 -10 -17 -27 -26 -38 -16 -19 -17 -19 -3 5 26 46 29 50 34 50 3 0 0 -8
-5 -17z m-1636 -162 c-8 -27 -19 -27 -61 5 -38 29 -38 31 -24 70 l11 28 41
-41 c31 -31 39 -45 33 -62z m1252 47 c-2 -13 -4 -5 -4 17 -1 22 1 32 4 23 2
-10 2 -28 0 -40z m-2570 -32 c-4 -13 -42 -20 -65 -11 -16 6 -16 7 1 19 20 15
70 9 64 -8z m-347 0 c0 -19 -51 -38 -91 -34 -55 5 -44 32 16 39 28 3 56 7 63
7 6 1 12 -4 12 -12z m4186 -41 c-14 -41 -118 -144 -124 -125 -4 10 128 174
134 168 2 -2 -3 -22 -10 -43z m273 -53 c-12 -35 -22 -62 -24 -60 -1 2 0 38 3
81 5 77 5 78 23 60 19 -18 19 -20 -2 -81z m-2878 61 c13 -16 12 -17 -3 -4 -17
13 -22 21 -14 21 2 0 10 -8 17 -17z m1318 -48 c8 4 23 -176 16 -183 -2 -2 -18
18 -35 43 -32 47 -32 47 -20 107 10 45 15 56 22 44 5 -9 13 -14 17 -11z
m-1325 -129 c-18 -43 -20 -44 -41 -31 -12 8 -28 13 -35 12 -7 -2 -10 -2 -5 0
4 3 5 9 2 14 -4 5 2 34 11 64 l18 56 34 -35 35 -34 -19 -46z m2576 71 c0 -1
-26 -27 -57 -57 l-58 -55 55 58 c50 53 60 62 60 54z m-1016 -82 c-9 -14 -18
-25 -21 -25 -5 0 5 18 20 38 17 22 18 13 1 -13z m-263 -53 c25 -22 30 -33 24
-51 -7 -23 -7 -23 -41 10 -32 31 -45 69 -24 69 5 0 24 -13 41 -28z m-1351 -54
c0 -5 -13 1 -30 14 -16 12 -30 26 -30 30 0 5 14 -1 30 -14 17 -12 30 -26 30
-30z m-44 -40 l29 -33 -32 29 c-18 17 -33 31 -33 33 0 8 8 1 36 -29z m1369 12
c31 -19 32 -22 22 -50 l-11 -29 -28 32 c-25 29 -37 67 -22 67 4 0 21 -9 39
-20z m295 -15 c-4 -20 -22 -57 -39 -83 l-31 -47 6 50 c5 37 15 59 37 83 17 17
32 32 33 32 1 0 -2 -16 -6 -35z m-1680 -78 c0 -5 -20 -53 -45 -105 -34 -71
-48 -93 -57 -84 -11 11 1 62 44 180 19 51 21 53 39 36 10 -9 19 -22 19 -27z
m1380 -34 c0 -18 -24 -83 -31 -83 -4 0 -21 12 -36 26 -18 16 -22 24 -10 20 18
-6 23 4 8 20 -5 5 -5 19 0 32 8 22 10 22 39 7 16 -8 30 -18 30 -22z m246 -71
c-18 -35 -39 -53 -29 -25 10 27 35 64 40 59 3 -2 -3 -18 -11 -34z m-313 -57
c18 -13 18 -16 1 -73 -17 -58 -18 -60 -40 -45 -19 12 -21 19 -14 46 4 18 11
44 14 60 7 30 13 32 39 12z m717 1 c0 -2 -8 -10 -17 -17 -16 -13 -17 -12 -4 4
13 16 21 21 21 13z m-429 -58 c-3 -21 -6 -26 -9 -15 -3 17 3 47 11 47 2 0 1
-15 -2 -32z m-1730 -51 c-8 -8 -11 -7 -11 4 0 9 3 19 7 23 4 4 9 2 11 -4 3 -7
-1 -17 -7 -23z m2178 -45 c-13 -39 -99 -123 -99 -97 0 17 86 121 102 124 4 1
3 -12 -3 -27z m-2206 -27 c-3 -9 -8 -14 -10 -11 -3 3 -2 9 2 15 9 16 15 13 8
-4z m1426 -21 c3 -16 1 -17 -13 -5 -19 16 -21 34 -3 29 6 -3 14 -13 16 -24z
m-9 -46 c0 -6 -6 -5 -15 2 -8 7 -15 14 -15 16 0 2 7 1 15 -2 8 -4 15 -11 15
-16z m1745 -138 c-16 -63 -32 -101 -55 -130 -18 -23 -34 -40 -35 -38 -2 2 2
32 7 68 8 51 19 77 55 127 25 35 46 63 48 63 2 0 -7 -40 -20 -90z m148 35 c-3
-9 -8 -14 -10 -11 -3 3 -2 9 2 15 9 16 15 13 8 -4z m-1940 -45 c-3 -11 -7 -20
-9 -20 -2 0 -4 9 -4 20 0 11 4 20 9 20 5 0 7 -9 4 -20z m714 -145 c-6 -19 -18
-42 -27 -50 -16 -15 -17 -14 -12 12 4 22 37 73 48 73 1 0 -3 -16 -9 -35z m993
-211 c-17 -76 -33 -150 -36 -163 -12 -57 -11 -6 2 111 11 100 19 135 36 162
13 19 24 33 25 32 2 -2 -11 -65 -27 -142z m-1035 71 c-9 -36 -13 -43 -14 -23
-1 28 16 84 24 77 2 -3 -2 -27 -10 -54z m1255 -1541 c0 -3 18 -73 41 -157 253
-944 425 -1607 485 -1872 34 -149 34 -151 34 -404 l0 -254 -52 6 c-29 3 -151
12 -271 18 -207 12 -218 14 -222 33 -2 12 -9 44 -14 71 -6 28 -38 194 -72 370
-33 176 -87 460 -120 630 -33 171 -69 355 -79 410 -10 55 -35 183 -55 285 -20
102 -61 313 -91 470 -30 157 -57 292 -59 301 -5 13 30 22 217 56 234 43 258
46 258 37z m-198 -2697 c64 -45 158 -115 208 -154 50 -40 99 -73 109 -73 11 0
117 18 237 40 121 21 222 36 226 32 9 -10 79 -268 122 -453 52 -223 82 -412
106 -669 39 -420 217 -2027 355 -3210 8 -69 15 -128 15 -132 0 -5 -184 -8
-409 -8 l-408 0 -7 123 c-4 67 -9 151 -11 187 -3 36 -14 225 -25 420 -11 195
-22 391 -25 435 -3 44 -19 312 -35 595 -39 680 -42 721 -65 1100 -8 129 -27
453 -42 719 -17 302 -31 484 -38 486 -5 1 -46 8 -89 15 -119 18 -190 42 -195
65 -2 11 -38 143 -81 293 -42 149 -74 272 -71 272 3 0 59 -38 123 -83z m-3768
-529 c13 -46 37 -128 51 -183 15 -55 58 -195 96 -312 69 -215 91 -313 70 -313
-15 0 -73 119 -104 215 -61 187 -141 507 -153 613 -10 89 10 80 40 -20z m693
-115 c53 -69 75 -111 61 -119 -17 -11 -118 102 -118 133 0 34 24 28 57 -14z
m959 -597 c15 -11 16 -17 7 -27 -9 -9 -18 -8 -38 5 -25 17 -26 36 -1 36 7 0
21 -6 32 -14z m302 -76 c27 -16 65 -36 85 -45 20 -8 37 -19 37 -24 0 -15 -95
-23 -138 -12 -52 15 -97 64 -82 92 15 27 42 24 98 -11z m282 -35 c10 -12 10
-19 2 -27 -13 -13 -42 6 -42 28 0 19 24 18 40 -1z m907 -441 c41 -11 13 -24
-53 -24 -86 0 -86 26 1 29 17 0 40 -2 52 -5z m-1598 -83 c24 -18 22 -41 -3
-41 -18 0 -49 37 -41 49 9 15 16 14 44 -8z m1321 -9 c36 -29 17 -45 -44 -37
-62 9 -78 21 -52 41 27 19 69 18 96 -4z m560 -22 c26 -16 2 -22 -81 -21 -85 2
-103 6 -94 22 8 12 156 12 175 -1z m305 -20 c11 -18 -15 -40 -46 -40 -35 0
-39 22 -6 38 29 14 44 14 52 2z m-10965 -211 c58 -85 214 -300 348 -479 l243
-325 -117 125 c-64 69 -247 253 -406 410 l-289 285 31 24 c39 29 62 79 54 123
-5 33 -5 33 13 12 10 -12 65 -91 123 -175z m11155 162 c-15 -13 -72 -30 -79
-24 -17 18 4 28 64 32 14 0 20 -3 15 -8z m-1751 -29 c45 -8 62 -32 22 -32 -41
0 -126 21 -126 31 0 10 48 11 104 1z m-4107 -204 c-3 -8 -6 -5 -6 6 -1 11 2
17 5 13 3 -3 4 -12 1 -19z m5292 -9 c31 -11 43 -39 16 -39 -25 0 -65 23 -65
37 0 16 8 16 49 2z m-2778 -90 c-51 -39 -96 -69 -101 -67 -9 3 168 136 183
137 5 1 -32 -31 -82 -70z m3227 34 c31 -42 8 -56 -106 -67 -99 -10 -184 1
-180 23 11 54 250 91 286 44z m-4093 -97 c-61 -33 -96 -45 -145 -50 -36 -4
-83 -9 -105 -12 -52 -6 91 47 220 81 121 32 122 31 30 -19z m-2288 -108 c-3
-8 -6 -5 -6 6 -1 11 2 17 5 13 3 -3 4 -12 1 -19z m5440 -73 c29 -29 33 -37 23
-55 -15 -28 -34 -25 -64 11 -25 30 -33 59 -19 72 12 13 25 7 60 -28z m-3192
-680 c233 -134 776 -411 958 -489 58 -24 196 -74 308 -110 185 -60 338 -120
328 -130 -8 -8 -265 42 -383 73 -141 38 -304 97 -430 155 -92 43 -377 203
-536 301 -180 112 -508 342 -509 357 -1 4 36 -17 82 -46 45 -29 127 -79 182
-111z"/>
<path d="M11576 19988 c-11 -35 -26 -212 -19 -219 16 -15 345 -109 643 -182
670 -166 885 -244 1419 -512 440 -222 816 -426 1230 -668 113 -65 212 -122
220 -125 9 -3 23 -11 33 -19 9 -8 62 -43 119 -77 l102 -63 76 28 c42 15 147
52 234 81 l158 53 -5 30 c-4 16 -10 32 -14 36 -4 3 -97 36 -207 74 -605 205
-1232 459 -1825 740 -513 243 -931 431 -1513 681 l-358 154 -145 0 c-107 0
-146 -3 -148 -12z"/>
<path d="M12145 19995 c6 -2 123 -40 260 -85 627 -205 984 -353 1845 -765
1020 -488 1482 -706 1486 -702 3 2 -5 29 -17 59 l-21 56 -201 88 c-905 395
-1493 699 -2359 1223 l-218 131 -392 -1 c-216 0 -388 -2 -383 -4z"/>
<path d="M13105 19991 c296 -120 1352 -629 1875 -904 204 -106 412 -218 529
-284 63 -35 116 -61 119 -59 7 7 -51 126 -120 247 l-60 107 -231 108 c-127 60
-531 263 -899 452 l-670 342 -281 -1 c-157 0 -273 -4 -262 -8z"/>
<path d="M14365 19855 c160 -78 434 -219 610 -313 l320 -169 55 24 c30 13 63
32 74 42 18 18 17 20 -35 55 l-53 36 -28 -27 c-15 -15 -30 -25 -32 -22 -2 2
-18 32 -35 66 l-31 61 -290 196 -291 196 -277 -1 -277 0 290 -144z"/>
<path d="M14988 19984 c24 -17 39 -14 27 5 -3 6 -16 11 -28 11 l-21 0 22 -16z"/>
<path d="M15486 19992 c5 -5 47 -37 93 -72 367 -276 1105 -896 1441 -1210
l146 -138 145 14 c79 8 164 17 189 20 l45 6 -25 17 c-166 110 -821 597 -1163
863 -301 235 -614 485 -621 497 -5 7 -52 11 -134 11 -69 0 -122 -4 -116 -8z"/>
<path d="M16041 19996 c2 -2 60 -50 129 -107 314 -259 688 -589 1074 -945 136
-126 273 -252 304 -280 l57 -51 94 6 95 6 -80 54 c-431 296 -754 562 -1317
1084 l-256 237 -52 0 c-29 0 -50 -2 -48 -4z"/>
<path d="M16431 19996 c76 -64 264 -235 484 -440 393 -366 621 -577 830 -765
l179 -161 153 0 154 0 -7 38 c-4 20 -28 116 -54 212 -26 96 -46 177 -44 179 1
2 180 -100 395 -225 440 -255 368 -227 649 -254 69 -7 188 -21 264 -31 77 -10
147 -19 155 -19 16 0 -51 36 -624 330 -686 352 -666 341 -1215 697 -289 187
-560 363 -604 391 l-79 52 -320 0 c-176 0 -318 -2 -316 -4z"/>
<path d="M17395 19983 c130 -70 712 -422 909 -550 93 -61 206 -123 223 -123 9
0 -188 131 -694 461 l-351 229 -59 0 -58 -1 30 -16z"/>
<path d="M17831 19996 c2 -2 63 -40 135 -84 377 -230 979 -640 1757 -1194 152
-108 277 -195 277 -191 0 3 -47 69 -105 148 l-104 142 -378 235 c-208 130
-468 291 -578 359 -214 132 -606 383 -797 511 -105 70 -122 78 -164 78 -26 0
-45 -2 -43 -4z"/>
<path d="M18266 19992 c5 -5 108 -69 229 -142 121 -73 319 -195 440 -270 260
-161 245 -152 245 -146 0 2 -35 31 -77 63 -43 32 -209 159 -370 281 l-291 222
-93 0 c-51 0 -89 -4 -83 -8z"/>
<path d="M15300 19879 c0 -2 15 -32 33 -66 30 -59 39 -67 172 -156 327 -218
837 -589 1233 -895 131 -101 246 -189 257 -196 14 -9 37 -11 74 -7 50 6 52 7
35 22 -11 9 -163 114 -339 234 -383 262 -596 411 -849 598 -171 125 -554 417
-598 455 -10 8 -18 13 -18 11z"/>
<path d="M11536 19633 c-3 -27 -13 -124 -21 -218 -8 -93 -19 -221 -25 -284 -5
-62 -8 -117 -5 -121 2 -4 109 -10 237 -13 395 -11 793 -56 1153 -131 715 -149
1012 -217 1310 -301 129 -36 170 -41 95 -11 -66 26 -523 238 -845 391 -443
211 -589 269 -1095 438 -360 120 -507 173 -667 242 -70 30 -128 55 -129 55 -1
0 -5 -21 -8 -47z"/>
<path d="M15581 19350 c9 -14 37 -61 62 -105 l46 -80 318 -169 c175 -93 442
-236 594 -317 152 -82 281 -149 287 -149 31 0 0 24 -130 100 -272 158 -797
486 -1163 725 l-30 20 16 -25z"/>
<path d="M11476 18913 c-3 -32 -7 -78 -8 -103 l-3 -45 75 -2 c131 -4 379 -23
550 -43 248 -29 446 -66 1120 -209 338 -72 755 -161 925 -197 451 -95 783
-171 919 -210 l118 -34 54 17 c30 9 54 19 54 22 0 3 -137 64 -303 135 -240
103 -330 137 -436 163 -269 66 -715 164 -1101 242 -217 44 -476 98 -575 120
-350 76 -778 143 -1130 176 -88 8 -181 17 -206 20 l-47 5 -6 -57z"/>
<path d="M15855 18858 c18 -40 54 -129 80 -198 l46 -125 116 -68 116 -67 151
34 c83 20 216 47 296 62 80 14 146 27 148 28 1 2 -60 27 -135 56 -162 63 -678
275 -776 319 -38 17 -70 31 -72 31 -2 0 11 -33 30 -72z"/>
<path d="M11465 18678 c-4 -11 -25 -276 -25 -319 0 -15 23 -18 188 -23 405
-13 712 -28 897 -42 364 -27 2397 -263 2414 -279 6 -7 -5 -6 -154 4 -71 5
-179 12 -240 16 -60 3 -137 8 -170 10 -33 3 -163 12 -290 20 -412 28 -1319
104 -1435 120 -19 3 -174 14 -345 25 -170 11 -337 22 -370 25 -151 11 -270 17
-265 12 3 -3 73 -13 155 -22 724 -78 1629 -225 2375 -387 129 -28 247 -53 262
-56 20 -3 83 20 220 81 106 47 255 109 330 138 76 30 137 57 138 60 0 11 -199
49 -710 135 -859 144 -1260 218 -1797 333 -320 69 -739 128 -1028 146 -55 3
-110 8 -123 11 -13 3 -24 -1 -27 -8z"/>
<path d="M16032 18389 c8 -25 15 -30 32 -25 11 3 29 6 39 6 31 0 18 17 -26 34
-57 21 -58 21 -45 -15z"/>
<path d="M17655 18333 l-40 -4 -98 -297 c-146 -443 -355 -1033 -487 -1375
l-38 -97 59 -186 c32 -102 59 -192 59 -200 0 -46 29 10 80 156 146 420 566
1513 767 1998 4 9 -25 12 -128 10 -74 -1 -152 -3 -174 -5z"/>
<path d="M17941 18173 c-156 -626 -361 -1314 -580 -1947 -67 -191 -121 -350
-121 -353 0 -3 27 -3 59 -1 74 4 69 -7 -9 -23 -37 -7 -61 -17 -65 -28 -4 -9
-15 -40 -26 -69 l-18 -53 49 7 c34 4 55 3 65 -6 9 -7 17 -11 18 -9 2 2 22 56
45 119 330 914 558 1488 864 2168 l101 224 -14 66 -14 67 -156 3 -156 2 -42
-167z"/>
<path d="M17437 18321 c-37 -6 -39 -8 -76 -96 -36 -86 -84 -187 -408 -860 -77
-159 -150 -311 -161 -337 l-21 -48 43 0 44 0 25 -77 24 -78 21 45 c11 25 101
230 200 455 99 226 239 541 311 701 72 161 131 294 131 298 0 7 -80 6 -133 -3z"/>
<path d="M17320 18314 c-14 -2 -59 -6 -101 -9 l-76 -6 -23 -47 c-73 -149 -348
-775 -365 -832 -4 -14 26 31 65 100 100 172 236 378 393 593 149 205 151 208
140 206 -4 -1 -19 -3 -33 -5z"/>
<path d="M16963 18278 l-71 -10 -75 -166 c-41 -92 -114 -259 -163 -371 -83
-192 -87 -205 -73 -229 22 -40 33 -36 63 25 66 137 277 497 390 666 l65 97
-32 -1 c-18 -1 -64 -6 -104 -11z"/>
<path d="M11436 18229 c-3 -17 -6 -49 -6 -69 0 -34 3 -39 28 -44 90 -18 451
-59 717 -81 171 -14 433 -39 584 -56 150 -16 278 -28 284 -26 5 1 -37 11 -94
21 -325 55 -1112 214 -1321 267 -42 10 -101 19 -131 19 -53 0 -55 -1 -61 -31z"/>
<path d="M16665 18234 c-77 -14 -162 -30 -189 -37 l-49 -12 -74 -132 c-72
-130 -73 -133 -57 -158 9 -14 20 -25 24 -25 4 0 51 70 105 155 53 85 98 155
100 155 2 0 -34 -84 -80 -186 l-84 -185 61 -82 c33 -45 61 -83 63 -85 1 -2 22
32 45 75 62 114 237 409 282 475 21 31 38 59 38 62 0 10 -38 5 -185 -20z"/>
<path d="M19430 18223 c0 -8 33 -31 112 -77 l46 -27 16 32 c9 18 16 35 16 39
0 3 -35 12 -77 19 -43 7 -86 15 -95 17 -10 3 -18 2 -18 -3z"/>
<path d="M19641 18168 c-24 -65 -24 -66 15 -86 33 -17 39 -26 49 -73 7 -30 33
-135 60 -234 26 -99 50 -192 53 -207 2 -16 8 -28 13 -28 5 0 9 1 9 3 0 2 36
101 80 221 71 193 80 225 80 286 0 57 -3 70 -17 74 -10 2 -79 16 -153 31 -74
14 -145 28 -158 31 -17 3 -24 -1 -31 -18z"/>
<path d="M16261 18154 c-58 -13 -108 -27 -111 -31 -17 -20 -59 -134 -48 -130
7 3 30 11 51 18 37 12 39 11 61 -15 l22 -28 55 73 c91 122 102 139 87 138 -7
0 -60 -11 -117 -25z"/>
<path d="M15939 18076 c-85 -23 -160 -46 -166 -49 -6 -4 -50 -96 -98 -204
-173 -390 -262 -589 -598 -1328 -318 -701 -519 -1156 -513 -1162 6 -6 240 425
381 702 302 593 618 1159 935 1673 99 162 107 178 94 196 -20 29 -18 33 29 51
34 13 50 29 85 84 23 38 42 71 42 75 0 12 -35 5 -191 -38z"/>
<path d="M18321 18034 c-47 -187 -419 -1326 -506 -1549 -13 -33 -67 -177 -120
-320 -53 -143 -135 -361 -182 -484 l-87 -224 24 -69 c13 -37 26 -68 29 -68 8
0 75 176 171 445 42 121 94 267 114 324 164 462 370 975 575 1434 l71 159 -32
199 c-18 109 -35 199 -39 199 -4 0 -12 -21 -18 -46z"/>
<path d="M11420 17820 c0 -55 0 -103 0 -107 0 -5 48 -11 107 -16 60 -4 180
-14 268 -22 88 -9 239 -22 335 -31 166 -14 441 -43 615 -63 640 -78 849 -95
1039 -89 l141 5 143 72 c79 40 142 74 140 76 -2 2 -111 8 -243 14 -601 28
-1016 61 -1565 127 -207 24 -426 55 -784 109 -93 14 -175 25 -183 25 -10 0
-13 -23 -13 -100z"/>
<path d="M13350 17819 c124 -21 376 -66 561 -99 l336 -60 79 39 79 39 -35 6
c-83 14 -1166 117 -1217 115 -15 0 73 -18 197 -40z"/>
<path d="M15027 17775 c-76 -29 -140 -55 -142 -57 -3 -3 -171 -366 -279 -603
-25 -55 -38 -90 -29 -77 173 243 442 602 569 760 15 17 25 32 23 31 -2 0 -66
-25 -142 -54z"/>
<path d="M19936 17597 l-60 -232 61 -185 61 -185 1 418 c1 229 0 417 -1 417
-2 0 -30 -105 -62 -233z"/>
<path d="M15929 17624 c-105 -233 -113 -251 -102 -239 22 24 233 336 233 345
0 15 -33 80 -41 80 -3 0 -44 -84 -90 -186z"/>
<path d="M14312 17770 c43 -13 135 -22 118 -12 -8 5 -44 12 -80 15 -41 3 -55
2 -38 -3z"/>
<path d="M11410 17436 l0 -83 128 -6 c272 -14 833 -28 1422 -36 l615 -8 95 54
95 53 -75 -7 c-119 -13 -848 -9 -1040 5 -96 7 -274 19 -395 28 -181 12 -685
61 -812 78 l-33 5 0 -83z"/>
<path d="M14214 17426 c-176 -85 -106 -11 -584 -621 -825 -1052 -963 -1225
-1099 -1372 -55 -60 -91 -108 -102 -139 -10 -26 -17 -49 -16 -51 2 -1 48 50
102 115 55 64 174 203 265 307 91 105 357 413 590 685 499 581 731 847 893
1022 65 71 114 128 110 127 -4 0 -76 -33 -159 -73z"/>
<path d="M18431 17459 c-1 -4 -46 -136 -101 -295 -55 -158 -98 -290 -95 -292
2 -3 9 6 14 19 21 55 83 192 140 312 47 98 61 138 60 170 -1 36 -15 104 -18
86z"/>
<path d="M16072 17118 c-206 -509 -528 -1355 -519 -1364 2 -2 31 56 65 128
183 399 332 711 494 1037 l181 364 -39 78 c-21 44 -41 79 -44 79 -4 0 -65
-145 -138 -322z"/>
<path d="M13702 17088 c-184 -184 -697 -714 -894 -926 -94 -102 -108 -122
-136 -195 -17 -45 -30 -82 -28 -84 1 -1 69 77 152 174 322 383 599 688 918
1011 110 111 194 202 186 202 -8 0 -97 -82 -198 -182z"/>
<path d="M13315 17239 c-110 -17 -478 -58 -670 -76 l-80 -7 100 -7 c314 -24
530 -42 533 -44 2 -1 -145 -5 -325 -9 -402 -8 -668 -15 -793 -21 -186 -10
-437 -26 -545 -35 -60 -6 -116 -10 -122 -10 -8 0 -13 -15 -13 -40 0 -25 5 -40
13 -40 6 0 68 7 137 15 338 39 847 65 1283 65 163 0 246 -3 242 -10 -3 -5 -31
-10 -60 -10 -207 0 -1498 -126 -1597 -156 -10 -3 -18 -15 -18 -26 0 -18 4 -20
43 -14 142 20 704 64 1097 86 404 23 413 24 481 67 33 21 88 55 122 76 34 21
64 43 65 48 2 5 8 9 14 9 9 0 243 135 263 152 13 11 -32 8 -170 -13z"/>
<path d="M11400 17140 c0 -12 97 -12 125 0 14 6 -3 9 -52 9 -43 1 -73 -3 -73
-9z"/>
<path d="M18460 16993 c-135 -355 -292 -824 -370 -1101 -27 -97 -79 -253 -116
-347 -36 -93 -87 -231 -114 -305 -27 -74 -80 -222 -119 -327 l-70 -193 78
-237 c44 -131 82 -238 85 -238 10 0 286 468 280 474 -3 3 -8 0 -12 -6 -28 -44
-216 -312 -218 -310 -4 3 44 155 64 202 17 41 67 134 116 218 41 69 24 57 -30
-20 -25 -38 -43 -59 -39 -48 4 11 26 76 50 145 63 185 94 270 115 315 25 56
69 195 141 445 34 118 115 373 181 565 65 193 122 358 125 368 4 14 -1 17 -35
17 -48 0 -41 -24 -67 260 -9 96 -18 176 -20 178 -2 2 -13 -23 -25 -55z"/>
<path d="M13205 16881 l-230 -138 -41 -104 c-23 -57 -40 -106 -38 -108 2 -2
43 34 91 79 93 88 373 336 433 382 72 56 9 24 -215 -111z"/>
<path d="M12918 16915 c-4 -5 -217 -32 -1053 -135 -225 -28 -423 -54 -440 -59
-28 -7 -30 -11 -33 -60 -2 -30 -1 -59 1 -66 4 -9 40 -6 149 11 228 35 580 81
878 114 l275 31 109 72 c60 40 114 75 120 79 6 4 8 9 5 12 -3 4 -8 4 -11 1z"/>
<path d="M12405 16685 c-121 -23 -391 -74 -600 -114 -209 -40 -388 -74 -397
-77 -13 -4 -18 -16 -18 -46 0 -37 2 -40 23 -35 158 40 601 110 802 127 72 6
148 14 171 16 31 4 69 24 155 85 62 44 116 82 118 85 9 8 -37 1 -254 -41z"/>
<path d="M12815 16637 c-82 -54 -115 -82 -132 -112 -27 -48 -183 -382 -183
-391 0 -4 68 63 150 147 149 152 151 156 220 292 39 75 67 137 63 137 -5 0
-57 -33 -118 -73z"/>
<path d="M18782 16603 c-5 -10 -44 -135 -86 -278 -43 -143 -83 -279 -91 -302
-7 -23 -12 -43 -10 -45 2 -2 52 1 110 7 l108 10 48 165 c26 91 68 228 92 305
24 77 42 143 40 148 -2 4 -49 7 -103 7 -84 0 -101 -3 -108 -17z"/>
<path d="M19175 16588 c-16 -43 -151 -559 -148 -562 6 -5 306 73 314 82 8 9
149 433 149 448 0 6 -51 15 -127 23 -71 7 -140 15 -156 18 -17 3 -29 0 -32 -9z"/>
<path d="M12330 16533 c-288 -48 -911 -191 -935 -215 -7 -7 11 -8 55 -3 263
28 348 36 525 47 l200 12 100 74 c136 101 135 98 55 85z"/>
<path d="M19592 16320 l-63 -223 62 -144 c34 -79 65 -140 69 -136 5 4 18 44
30 88 12 44 60 191 106 327 46 136 84 251 84 256 0 17 -76 41 -152 48 l-74 6
-62 -222z"/>
<path d="M12543 16457 l-103 -71 -76 -225 c-41 -125 -78 -233 -81 -241 -3 -8
13 3 36 25 28 26 67 87 113 175 72 136 188 346 216 388 8 12 10 22 6 21 -5 0
-55 -32 -111 -72z"/>
<path d="M12020 16344 c-122 -17 -513 -81 -582 -95 l-48 -11 0 -74 c0 -41 2
-74 4 -74 2 0 64 15 137 34 74 19 188 46 254 61 178 39 213 52 293 113 39 30
72 56 72 58 0 5 -6 5 -130 -12z"/>
<path d="M12218 16226 c-101 -74 -189 -140 -195 -148 -6 -7 -75 -173 -153
-368 -78 -195 -144 -359 -147 -364 -20 -31 39 26 233 227 l219 228 117 277
c64 152 116 278 114 279 -2 2 -86 -57 -188 -131z"/>
<path d="M11655 16029 c-132 -76 -244 -140 -250 -142 -5 -2 -7 -8 -3 -12 4 -4
66 17 139 46 121 49 142 62 248 147 136 111 127 102 115 101 -5 0 -117 -63
-249 -140z"/>
<path d="M11491 16065 c-96 -35 -108 -41 -99 -50 6 -6 141 45 187 70 42 23 12
16 -88 -20z"/>
<path d="M11819 15924 c-170 -133 -161 -123 -343 -421 l-38 -62 16 -113 c10
-62 22 -141 29 -176 l12 -63 37 38 c25 27 59 90 113 213 43 96 135 294 206
439 71 145 128 265 127 266 -2 1 -73 -53 -159 -121z"/>
<path d="M19983 15975 c-6 -16 -54 -132 -107 -257 l-95 -226 22 -56 c12 -31
25 -56 28 -56 3 0 43 79 88 175 l82 176 -3 137 c-3 117 -5 133 -15 107z"/>
<path d="M11498 15865 c-47 -25 -89 -49 -93 -54 -3 -6 -3 -22 1 -36 6 -25 7
-25 78 37 90 78 112 98 106 97 -3 0 -44 -20 -92 -44z"/>
<path d="M12418 15757 l-136 -132 -52 -135 c-29 -74 -54 -138 -57 -142 -16
-27 22 11 148 152 137 153 146 165 186 263 51 121 53 127 50 127 -1 -1 -63
-60 -139 -133z"/>
<path d="M11492 15660 c-71 -60 -84 -85 -64 -118 6 -8 27 14 68 70 65 90 77
108 71 108 -2 0 -36 -27 -75 -60z"/>
<path d="M19310 15348 c-12 -40 -75 -237 -140 -438 -65 -201 -140 -432 -165
-515 -26 -82 -57 -181 -70 -220 -13 -38 -58 -189 -100 -335 -41 -146 -78 -271
-80 -277 -2 -7 -1 -13 3 -13 4 0 22 33 39 73 18 39 66 148 108 241 131 291
377 888 525 1273 88 230 88 211 -10 257 -82 38 -85 37 -110 -46z"/>
<path d="M11930 15297 c-31 -29 -121 -111 -200 -183 -138 -125 -146 -135 -166
-194 l-22 -62 20 -84 c11 -46 23 -84 28 -84 4 0 64 63 133 140 l124 141 72
186 c39 102 70 187 69 188 -2 2 -28 -20 -58 -48z"/>
<path d="M15333 15268 c-15 -24 -123 -261 -123 -270 0 -33 38 43 126 250 14
32 12 43 -3 20z"/>
<path d="M19968 15197 l-26 -54 29 -49 29 -49 0 103 c0 56 -1 102 -3 102 -2 0
-15 -24 -29 -53z"/>
<path d="M19606 14990 c-42 -115 -79 -216 -82 -225 -4 -9 -1 -15 9 -15 9 0 49
75 110 208 95 206 95 207 75 225 -11 9 -24 17 -28 17 -4 0 -42 -94 -84 -210z"/>
<path d="M12147 15032 l-127 -127 -40 -120 c-46 -136 -48 -152 -17 -110 12 17
76 97 141 180 97 121 125 164 148 224 15 41 26 76 25 78 -2 1 -60 -55 -130
-125z"/>
<path d="M19794 14844 l-97 -196 36 -32 c34 -29 37 -36 43 -104 11 -119 3
-130 145 216 43 106 79 203 79 216 0 17 -14 35 -49 60 -27 20 -51 36 -54 36
-3 0 -49 -88 -103 -196z"/>
<path d="M18136 14964 c-9 -24 -7 -28 9 -14 17 14 20 30 6 30 -5 0 -12 -7 -15
-16z"/>
<path d="M15161 14899 c-26 -42 -26 -53 -2 -40 18 10 37 58 27 68 -3 3 -14
-10 -25 -28z"/>
<path d="M19456 14584 c-35 -87 -27 -95 9 -9 16 36 26 68 23 71 -3 2 -18 -25
-32 -62z"/>
<path d="M11658 14553 c-20 -21 -25 -35 -21 -55 8 -41 18 -34 40 27 12 30 18
55 14 55 -4 0 -19 -12 -33 -27z"/>
<path d="M11760 14468 c-12 -35 -25 -69 -28 -77 -3 -9 -1 -12 6 -8 12 8 57
136 49 143 -2 2 -14 -24 -27 -58z"/>
<path d="M11904 14333 c-64 -76 -123 -152 -130 -170 -13 -30 -11 -39 24 -128
20 -52 39 -95 42 -95 3 0 23 53 44 118 21 64 62 183 91 265 29 81 51 147 49
147 -1 0 -55 -62 -120 -137z"/>
<path d="M14082 14223 c-89 -136 -119 -189 -111 -197 2 -2 21 -6 42 -8 l39 -3
32 90 c18 50 47 126 64 169 17 44 30 81 28 83 -1 2 -44 -59 -94 -134z"/>
<path d="M7066 14279 c33 -37 69 -49 118 -43 25 4 46 10 46 13 0 3 -15 12 -32
19 -18 7 -41 18 -50 23 -10 5 -36 9 -59 9 l-42 0 19 -21z"/>
<path d="M18725 13450 c-3 -5 -2 -10 4 -10 5 0 13 5 16 10 3 6 2 10 -4 10 -5
0 -13 -4 -16 -10z"/>
<path d="M12934 11439 c62 -1050 203 -1754 407 -2027 145 -194 459 -328 917
-392 268 -38 426 -43 947 -34 270 5 574 9 678 9 103 0 187 3 187 7 0 3 -18 44
-40 90 -85 178 -117 363 -105 593 15 272 8 313 -85 475 -33 58 -64 119 -70
136 l-10 31 -163 27 c-306 52 -792 163 -1232 282 -153 41 -226 67 -310 108
-199 99 -516 318 -884 615 -106 86 -205 165 -218 175 l-25 19 6 -114z"/>
<path d="M9584 8423 c3 -16 11 -56 17 -90 6 -35 14 -63 18 -63 10 1 41 27 41
35 0 5 -14 39 -31 77 -33 70 -55 90 -45 41z"/>
<path d="M10180 8380 c0 -5 5 -10 10 -10 6 0 10 5 10 10 0 6 -4 10 -10 10 -5
0 -10 -4 -10 -10z"/>
<path d="M9104 8360 c-7 -7 3 -87 30 -248 21 -130 41 -239 43 -241 5 -6 133
121 133 132 0 20 -174 367 -185 367 -6 0 -16 -5 -21 -10z"/>
<path d="M10212 8257 c-20 -21 -22 -31 -17 -98 5 -68 16 -254 31 -539 4 -63
10 -144 13 -180 l7 -65 37 80 c21 44 65 128 98 188 l60 108 -46 136 c-61 181
-145 393 -154 393 -4 0 -17 -10 -29 -23z"/>
<path d="M8548 8183 c-11 -14 -13 -28 -6 -60 l9 -43 30 22 c34 25 35 30 12 69
-20 34 -25 35 -45 12z"/>
<path d="M9668 8167 l-37 -32 28 -158 c27 -149 38 -187 48 -160 2 6 26 43 54
82 27 39 49 74 49 78 0 14 -93 223 -99 223 -3 0 -23 -15 -43 -33z"/>
<path d="M1141 8054 c-27 -108 -117 -336 -186 -474 -146 -288 -495 -1197 -703
-1830 -101 -308 -152 -479 -211 -717 l-41 -162 0 -2421 0 -2420 98 0 c53 0
356 -7 672 -15 316 -8 650 -15 741 -15 l166 0 286 298 c264 275 804 816 1011
1013 223 212 468 538 650 864 70 126 169 325 164 331 -2 1 -66 -59 -143 -134
-276 -270 -380 -344 -736 -521 -129 -65 -263 -137 -298 -160 -73 -50 -282
-216 -387 -307 -41 -36 -74 -63 -74 -60 0 2 34 62 77 133 42 70 114 196 160
278 100 178 148 243 347 473 304 351 368 428 393 470 112 190 -329 -125 -626
-447 -143 -156 -285 -296 -460 -455 -228 -205 -327 -292 -315 -276 6 8 54 69
106 135 254 323 497 663 668 935 30 47 108 191 175 320 174 336 314 572 472
798 40 57 73 106 73 109 0 2 -80 -77 -178 -178 -201 -207 -381 -376 -515 -483
-96 -76 -977 -690 -983 -684 -1 2 11 26 28 53 217 346 581 990 631 1115 36 92
82 278 111 460 38 235 95 785 82 797 -6 7 -39 -22 -255 -227 -208 -197 -383
-387 -510 -555 -180 -239 -703 -896 -708 -891 -2 1 8 31 22 67 50 127 157 467
200 634 50 197 81 373 94 535 17 202 2 1159 -24 1615 -3 50 -7 142 -10 205 -3
63 -10 189 -15 280 -22 400 -25 506 -23 1038 1 309 0 562 -1 562 -2 0 -13 -39
-25 -86z"/>
<path d="M10833 8062 c-17 -23 -24 -59 -38 -186 -9 -87 -15 -159 -12 -162 9
-10 138 196 133 214 -37 128 -48 162 -55 162 -4 0 -17 -13 -28 -28z"/>
<path d="M8613 8012 l-43 -37 41 -175 c23 -96 65 -248 94 -338 l52 -163 92
137 c50 75 91 141 91 145 0 5 -52 98 -117 206 -129 220 -156 263 -163 263 -3
0 -24 -17 -47 -38z"/>
<path d="M8050 8036 c0 -18 34 -116 41 -116 3 0 12 7 19 15 10 12 9 19 -3 37
-30 44 -57 73 -57 64z"/>
<path d="M11433 7863 c-21 -40 -23 -49 -78 -402 -19 -123 -38 -228 -42 -233
-3 -6 0 -9 6 -7 7 3 25 34 40 69 45 107 69 154 122 252 l51 93 -17 80 c-22
108 -45 185 -54 185 -4 0 -16 -17 -28 -37z"/>
<path d="M7732 7859 c3 -8 20 -60 39 -116 18 -57 37 -103 42 -103 9 0 56 51
57 63 0 11 -119 161 -132 166 -6 2 -9 -3 -6 -10z"/>
<path d="M8156 7841 c-26 -27 -27 -32 -16 -65 6 -20 13 -36 15 -36 1 0 19 15
40 34 31 28 35 37 26 53 -22 42 -36 44 -65 14z"/>
<path d="M8236 7691 l-48 -48 56 -144 c140 -362 275 -689 280 -681 3 5 21 45
40 88 18 44 50 114 71 156 l37 77 -67 123 c-38 68 -95 164 -128 213 -54 82
-186 265 -191 265 -1 0 -23 -22 -50 -49z"/>
<path d="M12005 7658 c-9 -43 -21 -218 -14 -218 4 0 20 23 36 52 26 46 29 57
21 97 -13 75 -18 91 -28 91 -5 0 -12 -10 -15 -22z"/>
<path d="M7904 7588 c-56 -61 -56 -63 -43 -107 7 -23 15 -41 18 -41 7 1 94
106 99 119 2 5 -7 21 -20 35 l-23 27 -31 -33z"/>
<path d="M7342 7538 c-7 -7 -12 -17 -12 -22 0 -17 134 -296 142 -296 4 0 26
25 48 55 l41 55 -97 110 c-53 61 -100 110 -103 110 -4 0 -12 -5 -19 -12z"/>
<path d="M10413 7398 c-39 -79 -88 -180 -107 -225 l-36 -82 2 -363 c3 -330 4
-358 16 -303 63 280 131 508 213 711 l49 121 -25 136 c-14 75 -25 139 -25 142
0 25 -26 -17 -87 -137z"/>
<path d="M7968 7426 c-32 -35 -58 -69 -58 -77 0 -37 129 -327 218 -491 54
-101 134 -250 178 -333 l78 -150 18 65 c10 36 36 121 58 189 l40 123 -104 167
c-57 91 -125 204 -151 251 -72 127 -203 321 -214 319 -3 -1 -32 -29 -63 -63z"/>
<path d="M6801 7304 c13 -31 85 -154 90 -154 3 0 11 10 16 23 9 19 4 29 -41
77 -49 53 -73 72 -65 54z"/>
<path d="M7564 7192 l-52 -68 30 -57 29 -58 51 77 c27 43 52 83 55 90 4 12
-46 85 -57 83 -3 0 -28 -30 -56 -67z"/>
<path d="M12505 7045 c-16 -44 -15 -82 4 -71 5 3 12 23 15 43 4 21 9 46 12 56
11 37 -14 14 -31 -28z"/>
<path d="M6510 6876 c0 -2 32 -52 71 -111 39 -59 73 -113 76 -121 9 -24 21
-16 33 22 l12 36 -88 89 c-77 78 -104 100 -104 85z"/>
<path d="M12955 6610 c-39 -78 -39 -80 -20 -94 11 -9 22 -16 25 -16 3 0 14 33
23 73 9 39 20 82 23 95 13 47 -13 18 -51 -58z"/>
<path d="M6753 6576 l-22 -44 94 -143 93 -143 36 78 c20 43 36 81 36 85 0 8
-203 211 -211 211 -3 0 -15 -20 -26 -44z"/>
<path d="M6190 6325 c0 -3 69 -87 152 -187 l153 -181 12 39 c26 86 28 83 -148
214 -156 117 -169 125 -169 115z"/>
<path d="M19896 2408 c-3 -24 -10 -86 -17 -138 -43 -378 -238 -1347 -433
-2150 -15 -58 -26 -108 -26 -112 0 -5 131 -8 290 -8 l290 0 0 1208 0 1207 -43
18 c-23 9 -45 17 -49 17 -4 0 -9 -19 -12 -42z"/>
</g>
</svg>
